<?xml version="1.0" encoding="UTF-8" standalone="no"?>
<!-- Generator: Adobe Illustrator 20.1.0, SVG Export Plug-In . SVG Version: 6.00 Build 0)  -->

<svg
   xmlns:dc="http://purl.org/dc/elements/1.1/"
   xmlns:cc="http://creativecommons.org/ns#"
   xmlns:rdf="http://www.w3.org/1999/02/22-rdf-syntax-ns#"
   xmlns:svg="http://www.w3.org/2000/svg"
   xmlns="http://www.w3.org/2000/svg"
   xmlns:sodipodi="http://sodipodi.sourceforge.net/DTD/sodipodi-0.dtd"
   xmlns:inkscape="http://www.inkscape.org/namespaces/inkscape"
   version="1.1"
   id="Layer_1"
   x="0px"
   y="0px"
   viewBox="0 0 256.00002 160.00001"
   xml:space="preserve"
   sodipodi:docname="irata-logo-borderless.svg"
   width="256"
   height="160"
   inkscape:version="0.92.4 (5da689c313, 2019-01-14)"><metadata
   id="metadata407"><rdf:RDF><cc:Work
       rdf:about=""><dc:format>image/svg+xml</dc:format><dc:type
         rdf:resource="http://purl.org/dc/dcmitype/StillImage" /><dc:title></dc:title></cc:Work></rdf:RDF></metadata><defs
   id="defs405">
	
	

		
		
		
	
			
			
		
				
					
				
			</defs><sodipodi:namedview
   pagecolor="#ffffff"
   bordercolor="#666666"
   borderopacity="1"
   objecttolerance="10"
   gridtolerance="10"
   guidetolerance="10"
   inkscape:pageopacity="0"
   inkscape:pageshadow="2"
   inkscape:window-width="1410"
   inkscape:window-height="777"
   id="namedview403"
   showgrid="false"
   fit-margin-top="0"
   fit-margin-left="0"
   fit-margin-right="0"
   fit-margin-bottom="0"
   inkscape:zoom="2.0692168"
   inkscape:cx="-20.548099"
   inkscape:cy="104.77044"
   inkscape:window-x="15"
   inkscape:window-y="209"
   inkscape:window-maximized="0"
   inkscape:current-layer="Layer_1"
   units="px" />
<style
   type="text/css"
   id="style2">
	.st0{fill:none;}
	.st1{fill:#D1D3D4;}
	.st2{fill:#006697;}
	.st3{fill:#FFFFFF;}
	.st4{fill:#5C79AB;}
	.st5{fill:#00539F;}
	.st6{fill:#636466;}
</style>
<g
   id="g388"
   transform="matrix(1.048321,0,0,1.048321,-18.450444,-9.3169492)">
					<g
   id="g386">
						<g
   id="g12">
							<path
   class="st1"
   d="M 257,85.1 C 257,124 204.5,155.6 139.7,155.6 74.9,155.6 22.4,124 22.4,85.1 22.4,46.2 74.9,14.6 139.7,14.6 204.5,14.7 257,46.2 257,85.1"
   id="path10"
   inkscape:connector-curvature="0"
   style="fill:#d1d3d4" />
						</g>
						<g
   id="g16">
							<path
   class="st2"
   d="m 139.7,160.4 c -32.2,0 -62.5,-7.6 -85.4,-21.3 C 30.7,124.9 17.6,105.8 17.6,85.2 17.6,64.6 30.6,45.5 54.3,31.3 77.2,17.6 107.5,10 139.7,10 c 32.2,0 62.5,7.6 85.4,21.3 23.6,14.2 36.7,33.3 36.7,53.9 0,20.6 -13,39.7 -36.7,53.9 -22.9,13.7 -53.2,21.3 -85.4,21.3 z m 0,-141 c -30.5,0 -59.1,7.1 -80.5,20 C 38.5,51.8 27.1,68 27.1,85.1 c 0,17.1 11.4,33.4 32.1,45.8 21.4,12.9 50,20 80.5,20 30.5,0 59.1,-7.1 80.5,-20 20.7,-12.4 32.1,-28.7 32.1,-45.8 0,-17.1 -11.4,-33.4 -32.1,-45.8 -21.5,-12.8 -50,-19.9 -80.5,-19.9 z"
   id="path14"
   inkscape:connector-curvature="0"
   style="fill:#006697" />
						</g>
						<g
   id="g20">
							<path
   class="st3"
   d="m 242.7,85.1 c 0,31.1 -46.2,56.3 -103.2,56.3 -57,0 -103.2,-25.2 -103.2,-56.3 0,-31.1 46.2,-56.3 103.2,-56.3 57,0 103.2,25.2 103.2,56.3"
   id="path18"
   inkscape:connector-curvature="0"
   style="fill:#ffffff" />
						</g>
						<g
   id="g24">
							<path
   d="m 139.5,141.9 c -57.2,0 -103.7,-25.5 -103.7,-56.8 0,-31.3 46.5,-56.8 103.7,-56.8 57.2,0 103.7,25.5 103.7,56.8 0,31.4 -46.5,56.8 -103.7,56.8 z m 0,-112.6 c -56.6,0 -102.7,25.1 -102.7,55.9 0,30.8 46.1,55.9 102.7,55.9 56.6,0 102.7,-25.1 102.7,-55.9 0.1,-30.9 -46,-55.9 -102.7,-55.9 z"
   id="path22"
   inkscape:connector-curvature="0" />
						</g>
						<g
   id="g28">
							<path
   class="st2"
   d="m 65.1,82.1 c 1.3,-0.2 2.1,-0.6 2.6,-1 0.7,-0.6 1.1,-1.8 1.1,-3.4 V 56 c 0,-1.4 -0.2,-2.4 -0.7,-3 -0.5,-0.5 -1.5,-0.9 -2.9,-1.2 V 50 h 14.1 v 28 c 0,1.6 0.2,2.6 0.7,3.1 0.5,0.5 1.4,0.8 2.7,1.1 V 84 H 65.1 Z M 70,34.9 c 1.1,-1.1 2.5,-1.7 4,-1.7 1.6,0 2.9,0.6 4,1.7 1.1,1.1 1.7,2.4 1.7,4 0,1.6 -0.6,2.9 -1.7,4 -1.1,1.1 -2.4,1.7 -4,1.7 -1.6,0 -2.9,-0.6 -4,-1.7 -1.1,-1.1 -1.7,-2.4 -1.7,-4 0,-1.5 0.6,-2.9 1.7,-4"
   id="path26"
   inkscape:connector-curvature="0"
   style="fill:#006697" />
						</g>
						<g
   id="g32">
							<path
   class="st2"
   d="m 85.4,82.1 c 1.4,-0.2 2.4,-0.5 2.9,-1 0.5,-0.5 0.8,-1.5 0.9,-2.9 L 89.3,76 V 56 C 89.3,54.5 89,53.5 88.5,52.9 88,52.4 87,52 85.4,51.9 v -1.8 h 14 v 5.7 c 1.6,-2 3.1,-3.6 4.7,-4.8 1.5,-1.2 3.3,-1.8 5.4,-1.8 1.5,0 2.9,0.5 4.1,1.5 1.2,1 1.8,2.4 1.8,4.3 0,1.4 -0.4,2.6 -1.3,3.6 -0.9,0.9 -2,1.4 -3.4,1.4 -1.6,0 -2.9,-0.7 -4.1,-2.2 -1.1,-1.5 -2,-2.2 -2.4,-2.2 -1,0 -2,0.6 -3,1.9 -1,1.2 -1.5,3 -1.5,5.2 v 14 c 0,2.4 0.4,3.9 1.1,4.5 0.7,0.6 2.1,1 4.3,1.2 v 1.8 H 85.4 Z"
   id="path30"
   inkscape:connector-curvature="0"
   style="fill:#006697" />
						</g>
						<g
   id="g36">
							<path
   class="st2"
   d="m 123.5,69.2 c 3.2,-1.9 8.2,-3.9 15,-5.9 v -5.4 c 0,-2.2 -0.5,-3.8 -1.4,-4.9 -0.9,-1.1 -2.5,-1.6 -4.9,-1.6 -1.3,0 -2.4,0.2 -3.2,0.7 -0.8,0.5 -1.3,1.1 -1.3,1.9 0,0.3 0,0.5 0.1,0.7 0.1,0.2 0.2,0.4 0.4,0.6 l 0.4,0.5 c 0.3,0.4 0.6,0.9 0.8,1.4 0.2,0.5 0.3,1 0.3,1.6 0,1.4 -0.5,2.5 -1.4,3.2 -0.9,0.8 -2,1.1 -3.2,1.1 -1.4,0 -2.6,-0.4 -3.6,-1.3 -1,-0.8 -1.5,-2.1 -1.5,-3.6 0,-2.8 1.3,-5.1 4,-6.7 2.6,-1.7 5.9,-2.5 9.8,-2.5 4.1,0 7.6,0.8 10.4,2.4 2.8,1.6 4.1,4.6 4.1,9 v 17.9 c 0,0.5 0.1,1 0.4,1.4 0.3,0.4 0.6,0.6 0.9,0.6 0.3,0 0.5,-0.1 0.8,-0.2 0.2,-0.1 0.6,-0.4 1.1,-0.9 l 1.1,1.5 c -1.4,1.7 -3,2.8 -4.8,3.5 -1.1,0.4 -2.3,0.6 -3.5,0.6 -2.2,0 -3.8,-0.6 -4.8,-1.9 -0.6,-0.7 -1,-1.8 -1.3,-3.2 -2,2 -4.3,3.5 -6.9,4.3 -1.5,0.5 -3.1,0.8 -4.6,0.8 -2,0 -3.9,-0.6 -5.6,-1.9 -1.7,-1.3 -2.6,-3.3 -2.6,-6 0.2,-3.1 1.8,-5.8 5,-7.7 m 12.8,9.5 c 0.6,-0.4 1.2,-1.1 2,-2 V 65.9 c -1.9,0.5 -3.6,1.2 -5.1,2.3 -2.5,1.8 -3.7,4 -3.7,6.7 0,1.6 0.4,2.8 1.1,3.6 0.7,0.8 1.5,1.2 2.4,1.2 1.2,0.1 2.3,-0.3 3.3,-1"
   id="path34"
   inkscape:connector-curvature="0"
   style="fill:#006697" />
						</g>
						<g
   id="g40">
							<path
   class="st2"
   d="m 154.9,53.3 v -2.1 c 0.6,-0.6 1.4,-1.3 2.4,-2.1 1.3,-1.2 2.5,-2.4 3.6,-3.6 2.2,-2.4 4.2,-5 6.1,-7.8 h 1.9 v 12.4 h 7.1 v 3.2 h -7.1 v 22.3 c 0,1 0.2,1.9 0.5,2.6 0.5,1.1 1.3,1.6 2.3,1.6 0.9,0 1.7,-0.3 2.4,-1 0.6,-0.7 1.3,-1.6 1.9,-2.8 l 1.8,0.9 c -0.9,2 -1.9,3.6 -3.1,4.9 -2.1,2.2 -4.7,3.3 -7.7,3.3 -1.7,0 -3.2,-0.3 -4.5,-1 -2.5,-1.2 -3.7,-3.5 -3.8,-6.8 v -24 z"
   id="path38"
   inkscape:connector-curvature="0"
   style="fill:#006697" />
						</g>
						<g
   id="g44">
							<path
   class="st2"
   d="m 184.7,69.2 c 3.2,-1.9 8.2,-3.9 15,-5.9 v -5.4 c 0,-2.2 -0.5,-3.8 -1.4,-4.9 -0.9,-1.1 -2.5,-1.6 -4.9,-1.6 -1.3,0 -2.4,0.2 -3.2,0.7 -0.8,0.5 -1.3,1.1 -1.3,1.9 0,0.3 0,0.5 0.1,0.7 0.1,0.2 0.2,0.4 0.4,0.6 l 0.4,0.5 c 0.3,0.4 0.6,0.9 0.8,1.4 0.2,0.5 0.3,1 0.3,1.6 0,1.4 -0.5,2.5 -1.4,3.2 -0.9,0.8 -2,1.1 -3.2,1.1 -1.4,0 -2.6,-0.4 -3.6,-1.3 -1,-0.8 -1.5,-2.1 -1.5,-3.6 0,-2.8 1.3,-5.1 4,-6.7 2.6,-1.7 5.9,-2.5 9.8,-2.5 4.1,0 7.6,0.8 10.4,2.4 2.8,1.6 4.1,4.6 4.1,9 v 17.9 c 0,0.5 0.1,1 0.4,1.4 0.3,0.4 0.6,0.6 0.9,0.6 0.3,0 0.5,-0.1 0.8,-0.2 0.2,-0.1 0.6,-0.4 1.1,-0.9 l 1.1,1.5 c -1.4,1.7 -3,2.8 -4.8,3.5 -1.1,0.4 -2.3,0.6 -3.5,0.6 -2.2,0 -3.8,-0.6 -4.8,-1.9 -0.6,-0.7 -1,-1.8 -1.3,-3.2 -2,2 -4.3,3.5 -6.9,4.3 -1.5,0.5 -3.1,0.8 -4.6,0.8 -2,0 -3.9,-0.6 -5.6,-1.9 -1.7,-1.3 -2.6,-3.3 -2.6,-6 0.2,-3.1 1.8,-5.8 5,-7.7 m 12.8,9.5 c 0.6,-0.4 1.2,-1.1 2,-2 V 65.9 c -1.9,0.5 -3.6,1.2 -5.1,2.3 -2.5,1.8 -3.7,4 -3.7,6.7 0,1.6 0.4,2.8 1.1,3.6 0.7,0.8 1.5,1.2 2.4,1.2 1.2,0.1 2.3,-0.3 3.3,-1"
   id="path42"
   inkscape:connector-curvature="0"
   style="fill:#006697" />
						</g>
						<g
   id="g48">
							<path
   class="st4"
   d="m 53.5,104.3 c 0.8,0 1.5,-0.1 1.8,-0.3 0.6,-0.3 0.9,-0.9 0.9,-1.8 V 87.9 C 56.2,87 55.9,86.5 55.3,86.2 55,86 54.3,85.9 53.4,85.9 V 85 H 64 v 0.8 c -0.9,0 -1.6,0.1 -1.9,0.3 -0.6,0.3 -0.9,0.9 -0.9,1.8 v 14.4 c 0,0.8 0.2,1.4 0.7,1.7 0.5,0.3 1.2,0.4 2.1,0.4 v 0.8 H 53.5 Z"
   id="path46"
   inkscape:connector-curvature="0"
   style="fill:#5c79ab" />
						</g>
						<g
   id="g52">
							<path
   class="st4"
   d="m 65.1,104.4 c 0.5,-0.1 1,-0.2 1.2,-0.4 0.3,-0.2 0.4,-0.7 0.4,-1.3 v -8.8 c 0,-0.6 -0.1,-1 -0.3,-1.2 -0.2,-0.2 -0.6,-0.4 -1.3,-0.4 v -0.7 h 5.7 v 2.1 c 0.5,-0.7 1.1,-1.3 1.8,-1.8 0.7,-0.5 1.5,-0.7 2.4,-0.7 1.3,0 2.2,0.3 2.9,1 0.7,0.7 1,1.8 1,3.5 v 7.2 c 0,0.7 0.1,1.1 0.3,1.3 0.2,0.2 0.6,0.3 1.1,0.4 v 0.7 h -7 v -0.7 c 0.5,-0.1 0.9,-0.3 1,-0.4 0.2,-0.2 0.3,-0.6 0.3,-1.2 v -7.2 c 0,-0.7 -0.1,-1.2 -0.2,-1.5 -0.2,-0.6 -0.7,-0.9 -1.3,-0.9 -0.5,0 -0.9,0.2 -1.4,0.6 -0.4,0.4 -0.7,0.7 -1,1.1 v 7.9 c 0,0.6 0.1,1.1 0.3,1.2 0.2,0.2 0.5,0.3 1,0.4 v 0.7 h -7.1 v -0.9 z"
   id="path50"
   inkscape:connector-curvature="0"
   style="fill:#5c79ab" />
						</g>
						<g
   id="g56">
							<path
   class="st4"
   d="m 81.7,92.7 v -0.8 c 0.3,-0.2 0.6,-0.5 1,-0.9 0.5,-0.5 1,-1 1.4,-1.5 0.9,-1 1.7,-2 2.4,-3.2 h 0.8 v 5 h 2.9 v 1.3 h -2.9 v 8.9 c 0,0.4 0.1,0.8 0.2,1 0.2,0.4 0.5,0.7 1,0.7 0.4,0 0.7,-0.1 1,-0.4 0.3,-0.3 0.5,-0.6 0.8,-1.1 L 91,102 c -0.3,0.8 -0.8,1.5 -1.2,2 -0.8,0.9 -1.9,1.3 -3.1,1.3 -0.7,0 -1.3,-0.1 -1.8,-0.4 -1,-0.5 -1.5,-1.4 -1.5,-2.7 v -9.6 h -1.7 z"
   id="path54"
   inkscape:connector-curvature="0"
   style="fill:#5c79ab" />
						</g>
						<g
   id="g60">
							<path
   class="st4"
   d="m 93.5,93 c 1.2,-1.3 2.7,-1.9 4.4,-1.9 1,0 1.9,0.3 2.8,0.8 0.9,0.5 1.5,1.2 2,2.1 0.4,0.7 0.6,1.6 0.7,2.7 0.1,0.5 0.1,0.9 0.1,1.2 h -7.7 c 0.1,1.2 0.3,2.2 0.6,3.1 0.6,1.6 1.6,2.4 3.1,2.4 0.7,0 1.4,-0.2 2,-0.6 0.4,-0.3 0.9,-0.7 1.4,-1.3 l 0.7,0.4 c -0.9,1.5 -2,2.6 -3.2,3.2 -0.8,0.4 -1.7,0.6 -2.7,0.6 -1.5,0 -2.8,-0.6 -4.1,-1.7 -1.3,-1.2 -1.9,-3 -1.9,-5.5 0,-2.5 0.6,-4.3 1.8,-5.5 m 6.5,3.7 c 0,-1.7 -0.2,-2.9 -0.4,-3.6 -0.3,-0.7 -0.8,-1 -1.6,-1 -0.8,0 -1.4,0.4 -1.6,1.2 -0.3,0.8 -0.5,2 -0.5,3.5 h 4.1 z"
   id="path58"
   inkscape:connector-curvature="0"
   style="fill:#5c79ab" />
						</g>
						<g
   id="g64">
							<path
   class="st4"
   d="m 104.7,104.4 c 0.6,-0.1 1,-0.2 1.2,-0.4 0.2,-0.2 0.3,-0.6 0.4,-1.2 v -0.9 -8.1 c 0,-0.6 -0.1,-1 -0.3,-1.2 -0.2,-0.2 -0.6,-0.4 -1.3,-0.4 v -0.7 h 5.7 v 2.3 c 0.6,-0.8 1.3,-1.5 1.9,-2 0.6,-0.5 1.3,-0.7 2.1,-0.7 0.6,0 1.2,0.2 1.6,0.6 0.5,0.4 0.7,1 0.7,1.7 0,0.6 -0.2,1.1 -0.5,1.5 -0.3,0.4 -0.8,0.6 -1.4,0.6 -0.6,0 -1.2,-0.3 -1.7,-0.9 -0.5,-0.6 -0.8,-0.9 -1,-0.9 -0.4,0 -0.8,0.3 -1.2,0.8 -0.4,0.5 -0.6,1.2 -0.6,2.1 v 5.6 c 0,1 0.1,1.6 0.4,1.8 0.3,0.2 0.8,0.4 1.7,0.5 v 0.7 h -7.9 v -0.8 z"
   id="path62"
   inkscape:connector-curvature="0"
   style="fill:#5c79ab" />
						</g>
						<g
   id="g68">
							<path
   class="st4"
   d="m 117.9,104.4 c 0.5,-0.1 1,-0.2 1.2,-0.4 0.3,-0.2 0.4,-0.7 0.4,-1.3 v -8.8 c 0,-0.6 -0.1,-1 -0.3,-1.2 -0.2,-0.2 -0.6,-0.4 -1.3,-0.4 v -0.7 h 5.7 v 2.1 c 0.5,-0.7 1.1,-1.3 1.8,-1.8 0.7,-0.5 1.5,-0.7 2.4,-0.7 1.3,0 2.2,0.3 2.9,1 0.7,0.7 1,1.8 1,3.5 v 7.2 c 0,0.7 0.1,1.1 0.3,1.3 0.2,0.2 0.6,0.3 1.1,0.4 v 0.7 h -7 v -0.7 c 0.5,-0.1 0.9,-0.3 1,-0.4 0.2,-0.2 0.3,-0.6 0.3,-1.2 v -7.2 c 0,-0.7 -0.1,-1.2 -0.2,-1.5 -0.2,-0.6 -0.7,-0.9 -1.3,-0.9 -0.5,0 -0.9,0.2 -1.4,0.6 -0.4,0.4 -0.7,0.7 -1,1.1 v 7.9 c 0,0.6 0.1,1.1 0.3,1.2 0.2,0.2 0.5,0.3 1,0.4 v 0.7 h -7.1 v -0.9 z"
   id="path66"
   inkscape:connector-curvature="0"
   style="fill:#5c79ab" />
						</g>
						<g
   id="g72">
							<path
   class="st4"
   d="m 136.6,99.1 c 1.3,-0.8 3.3,-1.6 6.1,-2.4 v -2.2 c 0,-0.9 -0.2,-1.5 -0.6,-1.9 -0.4,-0.4 -1,-0.6 -2,-0.6 -0.5,0 -1,0.1 -1.3,0.3 -0.3,0.2 -0.5,0.4 -0.5,0.7 0,0.1 0,0.2 0.1,0.3 0,0.1 0.1,0.2 0.2,0.2 l 0.2,0.2 c 0.1,0.2 0.2,0.3 0.3,0.5 0.1,0.2 0.1,0.4 0.1,0.6 0,0.6 -0.2,1 -0.6,1.3 -0.4,0.3 -0.8,0.5 -1.3,0.5 -0.6,0 -1.1,-0.2 -1.5,-0.5 -0.4,-0.3 -0.6,-0.8 -0.6,-1.5 0,-1.1 0.5,-2 1.6,-2.7 1.1,-0.7 2.4,-1 4,-1 1.7,0 3.1,0.3 4.2,1 1.1,0.7 1.7,1.9 1.7,3.6 v 7.2 c 0,0.2 0.1,0.4 0.2,0.5 0.1,0.2 0.2,0.2 0.4,0.2 0.1,0 0.2,0 0.3,-0.1 0.1,0 0.2,-0.2 0.4,-0.4 l 0.4,0.6 c -0.6,0.7 -1.2,1.2 -1.9,1.4 -0.4,0.2 -0.9,0.3 -1.4,0.3 -0.9,0 -1.5,-0.3 -1.9,-0.8 -0.2,-0.3 -0.4,-0.7 -0.5,-1.3 -0.8,0.8 -1.7,1.4 -2.8,1.8 -0.6,0.2 -1.2,0.3 -1.9,0.3 -0.8,0 -1.6,-0.3 -2.3,-0.8 -0.7,-0.5 -1.1,-1.3 -1.1,-2.4 0.1,-1 0.7,-2.1 2,-2.9 m 5.2,3.8 c 0.2,-0.2 0.5,-0.4 0.8,-0.8 v -4.4 c -0.8,0.2 -1.5,0.5 -2.1,0.9 -1,0.7 -1.5,1.6 -1.5,2.7 0,0.7 0.1,1.1 0.4,1.5 0.3,0.3 0.6,0.5 1,0.5 0.6,0.1 1,-0.1 1.4,-0.4"
   id="path70"
   inkscape:connector-curvature="0"
   style="fill:#5c79ab" />
						</g>
						<g
   id="g76">
							<path
   class="st4"
   d="m 149.3,92.7 v -0.8 c 0.3,-0.2 0.6,-0.5 1,-0.9 0.5,-0.5 1,-1 1.4,-1.5 0.9,-1 1.7,-2 2.4,-3.2 h 0.8 v 5 h 2.9 v 1.3 h -2.9 v 8.9 c 0,0.4 0.1,0.8 0.2,1 0.2,0.4 0.5,0.7 1,0.7 0.4,0 0.7,-0.1 1,-0.4 0.3,-0.3 0.5,-0.6 0.8,-1.1 l 0.7,0.3 c -0.3,0.8 -0.8,1.5 -1.2,2 -0.8,0.9 -1.9,1.3 -3.1,1.3 -0.7,0 -1.3,-0.1 -1.8,-0.4 -1,-0.5 -1.5,-1.4 -1.5,-2.7 v -9.6 h -1.7 z"
   id="path74"
   inkscape:connector-curvature="0"
   style="fill:#5c79ab" />
						</g>
						<g
   id="g80">
							<path
   class="st4"
   d="m 159.2,104.4 c 0.5,-0.1 0.9,-0.2 1.1,-0.4 0.3,-0.3 0.4,-0.7 0.4,-1.4 v -8.8 c 0,-0.6 -0.1,-1 -0.3,-1.2 -0.2,-0.2 -0.6,-0.4 -1.2,-0.5 v -0.7 h 5.7 v 11.3 c 0,0.6 0.1,1 0.3,1.2 0.2,0.2 0.5,0.3 1.1,0.4 v 0.7 h -7 v -0.6 z m 2,-19.1 c 0.5,-0.4 1,-0.7 1.6,-0.7 0.6,0 1.2,0.2 1.6,0.7 0.5,0.5 0.7,1 0.7,1.6 0,0.6 -0.2,1.2 -0.7,1.6 -0.5,0.5 -1,0.7 -1.6,0.7 -0.6,0 -1.2,-0.2 -1.6,-0.7 -0.5,-0.4 -0.7,-1 -0.7,-1.6 0.1,-0.6 0.3,-1.1 0.7,-1.6"
   id="path78"
   inkscape:connector-curvature="0"
   style="fill:#5c79ab" />
						</g>
						<g
   id="g84">
							<path
   class="st4"
   d="m 169.5,93.1 c 1.3,-1.4 2.9,-2.1 4.8,-2.1 2,0 3.6,0.7 4.8,2.1 1.3,1.4 1.9,3.1 1.9,5.1 0,2 -0.6,3.7 -1.9,5.1 -1.2,1.4 -2.9,2.1 -4.9,2.1 -1.9,0 -3.5,-0.7 -4.8,-2.1 -1.3,-1.4 -1.9,-3.1 -1.9,-5.1 0.1,-2 0.7,-3.7 2,-5.1 m 2.8,9.5 c 0.3,1.3 1,1.9 2,1.9 1,0 1.6,-0.5 1.9,-1.5 0.3,-1 0.5,-2.6 0.5,-4.8 0,-2.2 -0.2,-3.8 -0.5,-4.8 -0.3,-1 -0.9,-1.5 -1.8,-1.5 -1,0 -1.7,0.6 -2,1.9 -0.2,0.9 -0.3,2.3 -0.3,4.3 -0.2,2.3 -0.1,3.7 0.2,4.5"
   id="path82"
   inkscape:connector-curvature="0"
   style="fill:#5c79ab" />
						</g>
						<g
   id="g88">
							<path
   class="st4"
   d="m 182.2,104.4 c 0.5,-0.1 1,-0.2 1.2,-0.4 0.3,-0.2 0.4,-0.7 0.4,-1.3 v -8.8 c 0,-0.6 -0.1,-1 -0.3,-1.2 -0.2,-0.2 -0.6,-0.4 -1.3,-0.4 v -0.7 h 5.7 v 2.1 c 0.5,-0.7 1.1,-1.3 1.8,-1.8 0.7,-0.5 1.5,-0.7 2.4,-0.7 1.3,0 2.2,0.3 2.9,1 0.7,0.7 1,1.8 1,3.5 v 7.2 c 0,0.7 0.1,1.1 0.3,1.3 0.2,0.2 0.6,0.3 1.1,0.4 v 0.7 h -7 v -0.7 c 0.5,-0.1 0.9,-0.3 1,-0.4 0.2,-0.2 0.3,-0.6 0.3,-1.2 v -7.2 c 0,-0.7 -0.1,-1.2 -0.2,-1.5 -0.2,-0.6 -0.7,-0.9 -1.3,-0.9 -0.5,0 -0.9,0.2 -1.4,0.6 -0.4,0.4 -0.7,0.7 -1,1.1 v 7.9 c 0,0.6 0.1,1.1 0.3,1.2 0.2,0.2 0.5,0.3 1,0.4 v 0.7 H 182 v -0.9 z"
   id="path86"
   inkscape:connector-curvature="0"
   style="fill:#5c79ab" />
						</g>
						<g
   id="g92">
							<path
   class="st4"
   d="m 201,99.1 c 1.3,-0.8 3.3,-1.6 6.1,-2.4 v -2.2 c 0,-0.9 -0.2,-1.5 -0.6,-1.9 -0.4,-0.4 -1,-0.6 -2,-0.6 -0.5,0 -1,0.1 -1.3,0.3 -0.3,0.2 -0.5,0.4 -0.5,0.7 0,0.1 0,0.2 0.1,0.3 0,0.1 0.1,0.2 0.2,0.2 l 0.2,0.2 c 0.1,0.2 0.2,0.3 0.3,0.5 0.1,0.2 0.1,0.4 0.1,0.6 0,0.6 -0.2,1 -0.6,1.3 -0.4,0.3 -0.8,0.5 -1.3,0.5 -0.6,0 -1.1,-0.2 -1.5,-0.5 -0.4,-0.3 -0.6,-0.8 -0.6,-1.5 0,-1.1 0.5,-2 1.6,-2.7 1.1,-0.7 2.4,-1 4,-1 1.7,0 3.1,0.3 4.2,1 1.1,0.7 1.7,1.9 1.7,3.6 v 7.2 c 0,0.2 0.1,0.4 0.2,0.5 0.1,0.2 0.2,0.2 0.4,0.2 0.1,0 0.2,0 0.3,-0.1 0.1,0 0.2,-0.2 0.4,-0.4 l 0.4,0.6 c -0.6,0.7 -1.2,1.2 -1.9,1.4 -0.4,0.2 -0.9,0.3 -1.4,0.3 -0.9,0 -1.5,-0.3 -1.9,-0.8 -0.2,-0.3 -0.4,-0.7 -0.5,-1.3 -0.8,0.8 -1.7,1.4 -2.8,1.8 -0.6,0.2 -1.2,0.3 -1.9,0.3 -0.8,0 -1.6,-0.3 -2.3,-0.8 -0.7,-0.5 -1.1,-1.3 -1.1,-2.4 0,-1 0.7,-2.1 2,-2.9 m 5.2,3.8 c 0.2,-0.2 0.5,-0.4 0.8,-0.8 v -4.4 c -0.8,0.2 -1.5,0.5 -2.1,0.9 -1,0.7 -1.5,1.6 -1.5,2.7 0,0.7 0.1,1.1 0.4,1.5 0.3,0.3 0.6,0.5 1,0.5 0.5,0.1 1,-0.1 1.4,-0.4"
   id="path90"
   inkscape:connector-curvature="0"
   style="fill:#5c79ab" />
						</g>
						<g
   id="g96">
							<path
   class="st4"
   d="m 213.5,104.4 c 0.5,-0.1 0.9,-0.3 1.1,-0.5 0.2,-0.2 0.3,-0.6 0.3,-1.3 V 87.4 c 0,-0.6 -0.1,-1 -0.3,-1.2 -0.2,-0.2 -0.6,-0.3 -1.2,-0.5 V 85 h 5.7 v 17.6 c 0,0.7 0.1,1.1 0.3,1.3 0.2,0.2 0.6,0.4 1.2,0.5 v 0.7 h -7.2 v -0.7 z"
   id="path94"
   inkscape:connector-curvature="0"
   style="fill:#5c79ab" />
						</g>
						<g
   id="g100">
							<path
   class="st5"
   d="m 78.4,118 c 0.3,0 0.6,-0.1 0.8,-0.1 0.2,-0.1 0.4,-0.4 0.4,-0.7 v -6 c 0,-0.4 -0.1,-0.6 -0.4,-0.7 -0.1,-0.1 -0.4,-0.1 -0.8,-0.1 V 110 h 4.3 v 0.3 c -0.4,0 -0.6,0.1 -0.8,0.1 -0.2,0.1 -0.4,0.4 -0.4,0.7 v 6 c 0,0.3 0.1,0.6 0.3,0.7 0.2,0.1 0.5,0.2 0.9,0.2 v 0.3 h -4.3 z"
   id="path98"
   inkscape:connector-curvature="0"
   style="fill:#00539f" />
						</g>
						<g
   id="g104">
							<path
   class="st5"
   d="m 83.2,118 c 0.2,0 0.4,-0.1 0.5,-0.2 0.1,-0.1 0.2,-0.3 0.2,-0.6 v -3.7 c 0,-0.2 0,-0.4 -0.1,-0.5 -0.1,-0.1 -0.3,-0.2 -0.5,-0.2 v -0.3 h 2.3 v 0.9 c 0.2,-0.3 0.4,-0.5 0.7,-0.7 0.3,-0.2 0.6,-0.3 1,-0.3 0.5,0 0.9,0.1 1.2,0.4 0.3,0.3 0.4,0.8 0.4,1.4 v 3 c 0,0.3 0,0.5 0.1,0.5 0.1,0.1 0.2,0.1 0.5,0.2 v 0.3 H 86.6 V 118 c 0.2,0 0.4,-0.1 0.5,-0.2 0.1,-0.1 0.1,-0.2 0.1,-0.5 v -3 c 0,-0.3 0,-0.5 -0.1,-0.6 -0.1,-0.3 -0.3,-0.4 -0.6,-0.4 -0.2,0 -0.4,0.1 -0.6,0.2 -0.2,0.2 -0.3,0.3 -0.4,0.5 v 3.3 c 0,0.3 0,0.4 0.1,0.5 0.1,0.1 0.2,0.1 0.5,0.2 v 0.3 h -3 V 118 Z"
   id="path102"
   inkscape:connector-curvature="0"
   style="fill:#00539f" />
						</g>
						<g
   id="g108">
							<path
   class="st5"
   d="m 90.9,113.4 c 0.5,-0.6 1,-0.8 1.7,-0.8 0.3,0 0.6,0.1 0.9,0.2 0.2,0.1 0.4,0.3 0.6,0.5 V 111 c 0,-0.3 -0.1,-0.5 -0.2,-0.6 -0.1,-0.1 -0.4,-0.1 -0.8,-0.1 V 110 h 2.7 v 7.1 c 0,0.3 0,0.4 0.1,0.5 0.1,0.1 0.3,0.2 0.6,0.2 v 0.3 c -0.7,0.1 -1.1,0.1 -1.3,0.2 -0.2,0 -0.6,0.1 -1.1,0.3 v -0.8 c -0.2,0.2 -0.4,0.4 -0.6,0.5 -0.3,0.2 -0.6,0.3 -1,0.3 -0.6,0 -1.1,-0.3 -1.6,-0.8 -0.4,-0.5 -0.7,-1.2 -0.7,-2.1 0,-1 0.2,-1.8 0.7,-2.3 m 2.8,4.1 c 0.2,-0.2 0.3,-0.4 0.3,-0.5 v -3 c 0,-0.1 -0.1,-0.2 -0.3,-0.4 -0.2,-0.2 -0.4,-0.3 -0.7,-0.3 -0.4,0 -0.7,0.3 -0.9,0.9 -0.1,0.3 -0.1,0.8 -0.1,1.4 0,0.6 0,1.1 0.1,1.4 0.1,0.6 0.4,0.9 0.9,0.9 0.2,-0.1 0.4,-0.2 0.7,-0.4"
   id="path106"
   inkscape:connector-curvature="0"
   style="fill:#00539f" />
						</g>
						<g
   id="g112">
							<path
   class="st5"
   d="m 99.2,112.7 v 4.2 c 0,0.2 0,0.4 0.1,0.5 0.1,0.2 0.3,0.3 0.6,0.3 0.2,0 0.4,-0.1 0.6,-0.2 0.1,-0.1 0.2,-0.2 0.4,-0.3 v -3.5 c 0,-0.3 -0.1,-0.4 -0.2,-0.5 -0.1,-0.1 -0.3,-0.2 -0.6,-0.2 v -0.3 h 2.5 v 4.5 c 0,0.2 0,0.4 0.1,0.5 0.1,0.1 0.3,0.2 0.6,0.2 v 0.3 c -0.8,0.1 -1.2,0.1 -1.4,0.2 -0.2,0 -0.5,0.1 -1,0.3 v -0.8 c -0.3,0.3 -0.5,0.4 -0.7,0.5 -0.3,0.2 -0.7,0.3 -1.1,0.3 -0.4,0 -0.8,-0.1 -1.1,-0.4 -0.3,-0.3 -0.5,-0.7 -0.5,-1.4 v -3.1 c 0,-0.3 0,-0.4 -0.1,-0.5 -0.1,-0.1 -0.2,-0.1 -0.5,-0.2 v -0.3 h 2.3 z"
   id="path110"
   inkscape:connector-curvature="0"
   style="fill:#00539f" />
						</g>
						<g
   id="g116">
							<path
   class="st5"
   d="m 103.8,116.5 h 0.3 c 0.1,0.6 0.3,1 0.7,1.2 0.3,0.2 0.7,0.4 1,0.4 0.3,0 0.5,-0.1 0.7,-0.2 0.1,-0.1 0.2,-0.3 0.2,-0.6 0,-0.2 -0.1,-0.4 -0.2,-0.6 -0.1,-0.1 -0.2,-0.2 -0.4,-0.3 l -0.9,-0.4 c -0.5,-0.2 -0.8,-0.5 -1,-0.8 -0.2,-0.3 -0.3,-0.6 -0.3,-1 0,-0.5 0.2,-0.9 0.5,-1.2 0.3,-0.3 0.8,-0.5 1.4,-0.5 0.3,0 0.5,0 0.8,0.1 0.3,0.1 0.5,0.1 0.5,0.1 0.1,0 0.2,0 0.2,-0.1 0,0 0.1,-0.1 0.1,-0.2 h 0.3 v 1.8 h -0.3 c -0.1,-0.4 -0.3,-0.7 -0.6,-1 -0.3,-0.3 -0.6,-0.4 -0.9,-0.4 -0.3,0 -0.5,0.1 -0.6,0.2 -0.1,0.2 -0.2,0.3 -0.2,0.5 0,0.1 0.1,0.3 0.2,0.4 0.1,0.1 0.3,0.3 0.7,0.5 l 0.7,0.3 c 0.4,0.2 0.7,0.4 0.9,0.6 0.3,0.3 0.5,0.7 0.5,1.2 0,0.5 -0.2,0.9 -0.5,1.3 -0.3,0.4 -0.8,0.6 -1.5,0.6 -0.2,0 -0.3,0 -0.5,-0.1 -0.2,0 -0.4,-0.1 -0.6,-0.2 l -0.2,-0.1 c -0.1,0 -0.1,0 -0.1,0 0,0 0,0 -0.1,0 -0.1,0 -0.1,0 -0.2,0.1 -0.1,0.1 -0.1,0.1 -0.2,0.3 h -0.3 v -1.9 z"
   id="path114"
   inkscape:connector-curvature="0"
   style="fill:#00539f" />
						</g>
						<g
   id="g120">
							<path
   class="st5"
   d="m 108.5,113.2 v -0.3 c 0.1,-0.1 0.2,-0.2 0.4,-0.4 0.2,-0.2 0.4,-0.4 0.6,-0.6 0.4,-0.4 0.7,-0.8 1,-1.3 h 0.3 v 2.1 h 1.2 v 0.5 h -1.2 v 3.7 c 0,0.2 0,0.3 0.1,0.4 0.1,0.2 0.2,0.3 0.4,0.3 0.2,0 0.3,-0.1 0.4,-0.2 0.1,-0.1 0.2,-0.3 0.3,-0.5 l 0.3,0.1 c -0.1,0.3 -0.3,0.6 -0.5,0.8 -0.4,0.4 -0.8,0.6 -1.3,0.6 -0.3,0 -0.5,-0.1 -0.8,-0.2 -0.4,-0.2 -0.6,-0.6 -0.6,-1.1 v -4 h -0.6 z"
   id="path118"
   inkscape:connector-curvature="0"
   style="fill:#00539f" />
						</g>
						<g
   id="g124">
							<path
   class="st5"
   d="m 112.6,118 c 0.2,0 0.4,-0.1 0.5,-0.2 0.1,-0.1 0.1,-0.2 0.1,-0.5 v -0.4 -3.4 c 0,-0.3 0,-0.4 -0.1,-0.5 -0.1,-0.1 -0.3,-0.2 -0.5,-0.2 v -0.3 h 2.3 v 1 c 0.3,-0.3 0.5,-0.6 0.8,-0.8 0.3,-0.2 0.6,-0.3 0.9,-0.3 0.3,0 0.5,0.1 0.7,0.2 0.2,0.2 0.3,0.4 0.3,0.7 0,0.2 -0.1,0.4 -0.2,0.6 -0.1,0.2 -0.3,0.2 -0.6,0.2 -0.3,0 -0.5,-0.1 -0.7,-0.4 -0.2,-0.2 -0.3,-0.4 -0.4,-0.4 -0.2,0 -0.3,0.1 -0.5,0.3 -0.2,0.2 -0.2,0.5 -0.2,0.9 v 2.3 c 0,0.4 0.1,0.7 0.2,0.8 0.1,0.1 0.4,0.2 0.7,0.2 v 0.3 h -3.3 z"
   id="path122"
   inkscape:connector-curvature="0"
   style="fill:#00539f" />
						</g>
						<g
   id="g128">
							<path
   class="st5"
   d="m 118.1,118 c 0.2,0 0.4,-0.1 0.4,-0.2 0.1,-0.1 0.2,-0.3 0.2,-0.6 v -3.7 c 0,-0.2 0,-0.4 -0.1,-0.5 -0.1,-0.1 -0.2,-0.2 -0.5,-0.2 v -0.3 h 2.3 v 4.7 c 0,0.3 0,0.4 0.1,0.5 0.1,0.1 0.2,0.1 0.5,0.2 v 0.3 h -2.9 z m 0.8,-7.9 c 0.2,-0.2 0.4,-0.3 0.7,-0.3 0.3,0 0.5,0.1 0.7,0.3 0.2,0.2 0.3,0.4 0.3,0.7 0,0.3 -0.1,0.5 -0.3,0.7 -0.2,0.2 -0.4,0.3 -0.7,0.3 -0.3,0 -0.5,-0.1 -0.7,-0.3 -0.2,-0.2 -0.3,-0.4 -0.3,-0.7 0,-0.3 0.1,-0.5 0.3,-0.7"
   id="path126"
   inkscape:connector-curvature="0"
   style="fill:#00539f" />
						</g>
						<g
   id="g132">
							<path
   class="st5"
   d="m 122.4,115.9 c 0.5,-0.3 1.4,-0.7 2.5,-1 V 114 c 0,-0.4 -0.1,-0.6 -0.2,-0.8 -0.2,-0.2 -0.4,-0.3 -0.8,-0.3 -0.2,0 -0.4,0 -0.5,0.1 -0.1,0.1 -0.2,0.2 -0.2,0.3 0,0 0,0.1 0,0.1 0,0 0,0.1 0.1,0.1 l 0.1,0.1 c 0.1,0.1 0.1,0.1 0.1,0.2 0,0.1 0.1,0.2 0.1,0.3 0,0.2 -0.1,0.4 -0.2,0.5 -0.2,0.1 -0.3,0.2 -0.5,0.2 -0.2,0 -0.4,-0.1 -0.6,-0.2 -0.2,-0.1 -0.2,-0.3 -0.2,-0.6 0,-0.5 0.2,-0.8 0.7,-1.1 0.4,-0.3 1,-0.4 1.6,-0.4 0.7,0 1.3,0.1 1.8,0.4 0.5,0.3 0.7,0.8 0.7,1.5 v 3 c 0,0.1 0,0.2 0.1,0.2 0,0.1 0.1,0.1 0.2,0.1 0,0 0.1,0 0.1,0 0,0 0.1,-0.1 0.2,-0.1 l 0.2,0.3 c -0.2,0.3 -0.5,0.5 -0.8,0.6 -0.2,0.1 -0.4,0.1 -0.6,0.1 -0.4,0 -0.6,-0.1 -0.8,-0.3 -0.1,-0.1 -0.2,-0.3 -0.2,-0.5 -0.3,0.3 -0.7,0.6 -1.2,0.7 -0.3,0.1 -0.5,0.1 -0.8,0.1 -0.3,0 -0.6,-0.1 -0.9,-0.3 -0.3,-0.2 -0.4,-0.6 -0.4,-1 -0.4,-0.7 -0.1,-1.1 0.4,-1.4 m 2.2,1.6 c 0.1,-0.1 0.2,-0.2 0.3,-0.3 v -1.8 c -0.3,0.1 -0.6,0.2 -0.9,0.4 -0.4,0.3 -0.6,0.7 -0.6,1.1 0,0.3 0.1,0.5 0.2,0.6 0.1,0.1 0.3,0.2 0.4,0.2 0.2,-0.1 0.4,-0.1 0.6,-0.2"
   id="path130"
   inkscape:connector-curvature="0"
   style="fill:#00539f" />
						</g>
						<g
   id="g136">
							<path
   class="st5"
   d="m 127.7,118 c 0.2,-0.1 0.4,-0.1 0.5,-0.2 0.1,-0.1 0.1,-0.3 0.1,-0.5 V 111 c 0,-0.3 0,-0.4 -0.1,-0.5 -0.1,-0.1 -0.2,-0.1 -0.5,-0.2 V 110 h 2.3 v 7.3 c 0,0.3 0,0.4 0.1,0.5 0.1,0.1 0.2,0.2 0.5,0.2 v 0.3 h -2.9 z"
   id="path134"
   inkscape:connector-curvature="0"
   style="fill:#00539f" />
						</g>
						<g
   id="g140">
							<path
   class="st5"
   d="m 134.1,118 c 0.4,0 0.7,-0.1 0.8,-0.2 0.2,-0.1 0.2,-0.4 0.2,-0.9 v -5.5 c 0,-0.5 -0.1,-0.8 -0.3,-0.9 -0.1,-0.1 -0.4,-0.2 -0.8,-0.2 V 110 h 4 c 0.8,0 1.5,0.1 2,0.3 1,0.3 1.5,1 1.5,1.9 0,0.7 -0.2,1.2 -0.7,1.6 -0.3,0.3 -0.7,0.5 -1.1,0.6 l 2.3,3.5 c 0.1,0.1 0.1,0.2 0.2,0.2 0.1,0 0.2,0 0.3,0.1 v 0.3 H 140 l -2.6,-3.9 h -0.3 v 2.4 c 0,0.4 0.1,0.7 0.2,0.9 0.1,0.1 0.4,0.2 0.9,0.2 v 0.3 h -4.1 z m 4.8,-4.3 c 0.3,-0.2 0.5,-0.7 0.5,-1.5 0,-0.5 -0.1,-0.9 -0.2,-1.1 -0.2,-0.5 -0.6,-0.7 -1.3,-0.7 -0.3,0 -0.5,0 -0.7,0.1 -0.1,0.1 -0.2,0.2 -0.2,0.4 v 3.1 c 1,0.1 1.6,0 1.9,-0.3"
   id="path138"
   inkscape:connector-curvature="0"
   style="fill:#00539f" />
						</g>
						<g
   id="g144">
							<path
   class="st5"
   d="m 143.9,113.4 c 0.5,-0.6 1.2,-0.9 2,-0.9 0.8,0 1.5,0.3 2,0.9 0.5,0.6 0.8,1.3 0.8,2.1 0,0.8 -0.3,1.5 -0.8,2.1 -0.5,0.6 -1.2,0.9 -2,0.9 -0.8,0 -1.5,-0.3 -2,-0.9 -0.5,-0.6 -0.8,-1.3 -0.8,-2.1 0,-0.8 0.3,-1.6 0.8,-2.1 m 1.1,3.9 c 0.1,0.5 0.4,0.8 0.8,0.8 0.4,0 0.7,-0.2 0.8,-0.6 0.1,-0.4 0.2,-1.1 0.2,-2 0,-0.9 -0.1,-1.6 -0.2,-2 -0.1,-0.4 -0.4,-0.6 -0.8,-0.6 -0.4,0 -0.7,0.3 -0.8,0.8 -0.1,0.4 -0.1,1 -0.1,1.8 0,0.9 0.1,1.5 0.1,1.8"
   id="path142"
   inkscape:connector-curvature="0"
   style="fill:#00539f" />
						</g>
						<g
   id="g148">
							<path
   class="st5"
   d="m 149.2,120.6 c 0.3,0 0.4,-0.1 0.5,-0.2 0.1,-0.1 0.1,-0.3 0.1,-0.5 v -6.2 c 0,-0.3 0,-0.4 -0.1,-0.5 -0.1,-0.1 -0.3,-0.1 -0.5,-0.2 v -0.3 h 2.4 v 0.8 c 0.2,-0.3 0.3,-0.5 0.5,-0.6 0.3,-0.2 0.7,-0.3 1.1,-0.3 0.6,0 1.2,0.2 1.6,0.7 0.4,0.5 0.6,1.2 0.6,2.2 0,0.9 -0.2,1.6 -0.7,2.2 -0.5,0.6 -1,0.9 -1.7,0.9 -0.3,0 -0.7,-0.1 -1,-0.3 -0.2,-0.1 -0.3,-0.2 -0.5,-0.4 v 1 c 0,0.5 0,0.9 0,0.9 0,0.3 0.1,0.5 0.2,0.7 0.1,0.1 0.4,0.2 0.7,0.2 V 121 H 149 v -0.4 z m 4.3,-3.6 c 0.1,-0.3 0.1,-0.8 0.1,-1.4 0,-0.7 -0.1,-1.3 -0.2,-1.7 -0.1,-0.4 -0.4,-0.6 -0.8,-0.6 -0.3,0 -0.5,0.1 -0.7,0.4 -0.2,0.2 -0.3,0.4 -0.3,0.5 v 3 c 0,0.1 0.1,0.3 0.3,0.5 0.2,0.2 0.4,0.3 0.7,0.3 0.5,-0.1 0.8,-0.4 0.9,-1"
   id="path146"
   inkscape:connector-curvature="0"
   style="fill:#00539f" />
						</g>
						<g
   id="g152">
							<path
   class="st5"
   d="m 156.9,113.3 c 0.5,-0.5 1.1,-0.8 1.8,-0.8 0.4,0 0.8,0.1 1.1,0.3 0.4,0.2 0.6,0.5 0.8,0.9 0.1,0.3 0.2,0.7 0.3,1.1 0,0.2 0,0.4 0,0.5 h -3.1 c 0,0.5 0.1,0.9 0.2,1.3 0.2,0.7 0.7,1 1.3,1 0.3,0 0.6,-0.1 0.8,-0.3 0.2,-0.1 0.4,-0.3 0.6,-0.5 l 0.3,0.2 c -0.4,0.6 -0.8,1.1 -1.3,1.3 -0.3,0.2 -0.7,0.2 -1.1,0.2 -0.6,0 -1.2,-0.2 -1.7,-0.7 -0.5,-0.5 -0.8,-1.2 -0.8,-2.3 0,-0.9 0.3,-1.7 0.8,-2.2 m 2.6,1.6 c 0,-0.7 -0.1,-1.2 -0.2,-1.5 -0.1,-0.3 -0.3,-0.4 -0.6,-0.4 -0.3,0 -0.5,0.2 -0.7,0.5 -0.1,0.3 -0.2,0.8 -0.2,1.5 h 1.7 z"
   id="path150"
   inkscape:connector-curvature="0"
   style="fill:#00539f" />
						</g>
						<g
   id="g156">
							<path
   class="st5"
   d="m 163.9,118 c 0.3,0 0.5,-0.2 0.7,-0.4 0.1,-0.2 0.3,-0.5 0.5,-1 l 2.7,-6.7 h 0.4 l 2.7,6.5 c 0.3,0.7 0.5,1.2 0.7,1.4 0.2,0.2 0.4,0.3 0.6,0.3 v 0.3 h -4 V 118 c 0.4,0 0.7,-0.1 0.8,-0.1 0.1,-0.1 0.2,-0.2 0.2,-0.4 0,-0.1 0,-0.2 -0.1,-0.4 0,-0.1 -0.1,-0.3 -0.2,-0.4 L 168.6,116 H 166 c -0.2,0.5 -0.3,0.8 -0.4,1 -0.1,0.3 -0.2,0.5 -0.2,0.7 0,0.2 0.1,0.3 0.4,0.4 0.1,0 0.4,0.1 0.6,0.1 v 0.3 h -2.5 z m 4.6,-2.6 -1.2,-2.8 h -0.1 l -1.1,2.8 z"
   id="path154"
   inkscape:connector-curvature="0"
   style="fill:#00539f" />
						</g>
						<g
   id="g160">
							<path
   class="st5"
   d="m 177.1,112.9 c 0.4,0.3 0.6,0.6 0.6,1 0,0.2 -0.1,0.4 -0.2,0.6 -0.1,0.2 -0.3,0.2 -0.6,0.2 -0.2,0 -0.3,0 -0.4,-0.1 -0.2,-0.1 -0.3,-0.4 -0.3,-0.7 0,0 0,-0.1 0,-0.2 0,-0.1 0,-0.1 0,-0.2 0,-0.2 0,-0.4 -0.1,-0.4 -0.1,-0.1 -0.2,-0.1 -0.4,-0.1 -0.4,0 -0.6,0.2 -0.8,0.6 -0.2,0.4 -0.2,0.9 -0.2,1.4 0,0.8 0.2,1.4 0.5,1.9 0.3,0.5 0.7,0.8 1.2,0.8 0.3,0 0.6,-0.1 0.8,-0.2 0.1,-0.1 0.3,-0.2 0.5,-0.5 l 0.2,0.2 c -0.4,0.6 -0.9,0.9 -1.4,1.1 -0.3,0.1 -0.6,0.2 -0.9,0.2 -0.8,0 -1.4,-0.3 -1.9,-0.8 -0.5,-0.6 -0.7,-1.3 -0.7,-2.1 0,-0.9 0.3,-1.6 0.8,-2.2 0.5,-0.6 1.2,-0.9 2.1,-0.9 0.4,0 0.8,0.1 1.2,0.4"
   id="path158"
   inkscape:connector-curvature="0"
   style="fill:#00539f" />
						</g>
						<g
   id="g164">
							<path
   class="st5"
   d="m 182.6,112.9 c 0.4,0.3 0.6,0.6 0.6,1 0,0.2 -0.1,0.4 -0.2,0.6 -0.1,0.2 -0.3,0.2 -0.6,0.2 -0.2,0 -0.3,0 -0.4,-0.1 -0.2,-0.1 -0.3,-0.4 -0.3,-0.7 0,0 0,-0.1 0,-0.2 0,-0.1 0,-0.1 0,-0.2 0,-0.2 -0.1,-0.4 -0.1,-0.4 -0.1,-0.1 -0.2,-0.1 -0.4,-0.1 -0.4,0 -0.6,0.2 -0.8,0.6 -0.2,0.4 -0.2,0.9 -0.2,1.4 0,0.8 0.2,1.4 0.5,1.9 0.3,0.5 0.7,0.8 1.2,0.8 0.3,0 0.6,-0.1 0.8,-0.2 0.1,-0.1 0.3,-0.2 0.5,-0.5 l 0.2,0.2 c -0.4,0.6 -0.9,0.9 -1.4,1.1 -0.3,0.1 -0.6,0.2 -0.9,0.2 -0.8,0 -1.4,-0.3 -1.9,-0.8 -0.5,-0.6 -0.7,-1.3 -0.7,-2.1 0,-0.9 0.3,-1.6 0.8,-2.2 0.5,-0.6 1.2,-0.9 2.1,-0.9 0.4,0 0.8,0.1 1.2,0.4"
   id="path162"
   inkscape:connector-curvature="0"
   style="fill:#00539f" />
						</g>
						<g
   id="g168">
							<path
   class="st5"
   d="m 184.5,113.3 c 0.5,-0.5 1.1,-0.8 1.8,-0.8 0.4,0 0.8,0.1 1.1,0.3 0.4,0.2 0.6,0.5 0.8,0.9 0.1,0.3 0.2,0.7 0.3,1.1 0,0.2 0,0.4 0,0.5 h -3.1 c 0,0.5 0.1,0.9 0.2,1.3 0.2,0.7 0.7,1 1.3,1 0.3,0 0.6,-0.1 0.8,-0.3 0.2,-0.1 0.4,-0.3 0.6,-0.5 l 0.3,0.2 c -0.4,0.6 -0.8,1.1 -1.3,1.3 -0.3,0.2 -0.7,0.2 -1.1,0.2 -0.6,0 -1.2,-0.2 -1.7,-0.7 -0.5,-0.5 -0.8,-1.2 -0.8,-2.3 0.1,-0.9 0.3,-1.7 0.8,-2.2 m 2.7,1.6 c 0,-0.7 -0.1,-1.2 -0.2,-1.5 -0.1,-0.3 -0.3,-0.4 -0.6,-0.4 -0.3,0 -0.5,0.2 -0.7,0.5 -0.1,0.3 -0.2,0.8 -0.2,1.5 h 1.7 z"
   id="path166"
   inkscape:connector-curvature="0"
   style="fill:#00539f" />
						</g>
						<g
   id="g172">
							<path
   class="st5"
   d="m 189.3,116.5 h 0.3 c 0.1,0.6 0.3,1 0.7,1.2 0.3,0.2 0.7,0.4 1,0.4 0.3,0 0.5,-0.1 0.7,-0.2 0.1,-0.1 0.2,-0.3 0.2,-0.6 0,-0.2 -0.1,-0.4 -0.2,-0.6 -0.1,-0.1 -0.2,-0.2 -0.4,-0.3 l -0.9,-0.4 c -0.5,-0.2 -0.8,-0.5 -1,-0.8 -0.2,-0.3 -0.3,-0.6 -0.3,-1 0,-0.5 0.2,-0.9 0.5,-1.2 0.3,-0.3 0.8,-0.5 1.4,-0.5 0.3,0 0.5,0 0.8,0.1 0.3,0.1 0.5,0.1 0.5,0.1 0.1,0 0.2,0 0.2,-0.1 0,0 0.1,-0.1 0.1,-0.2 h 0.3 v 1.8 h -0.3 c -0.1,-0.4 -0.3,-0.7 -0.6,-1 -0.3,-0.3 -0.6,-0.4 -0.9,-0.4 -0.3,0 -0.5,0.1 -0.6,0.2 -0.1,0.2 -0.2,0.3 -0.2,0.5 0,0.1 0.1,0.3 0.2,0.4 0.1,0.1 0.3,0.3 0.7,0.5 l 0.7,0.3 c 0.4,0.2 0.7,0.4 0.9,0.6 0.3,0.3 0.5,0.7 0.5,1.2 0,0.5 -0.2,0.9 -0.5,1.3 -0.3,0.4 -0.8,0.6 -1.5,0.6 -0.2,0 -0.3,0 -0.5,-0.1 -0.2,0 -0.4,-0.1 -0.6,-0.2 l -0.2,-0.1 c -0.1,0 -0.1,0 -0.1,0 0,0 0,0 -0.1,0 -0.1,0 -0.1,0 -0.2,0.1 -0.1,0.1 -0.1,0.1 -0.2,0.3 h -0.3 v -1.9 z"
   id="path170"
   inkscape:connector-curvature="0"
   style="fill:#00539f" />
						</g>
						<g
   id="g176">
							<path
   class="st5"
   d="m 194.1,116.5 h 0.3 c 0.1,0.6 0.3,1 0.7,1.2 0.3,0.2 0.7,0.4 1,0.4 0.3,0 0.5,-0.1 0.7,-0.2 0.1,-0.1 0.2,-0.3 0.2,-0.6 0,-0.2 -0.1,-0.4 -0.2,-0.6 -0.1,-0.1 -0.2,-0.2 -0.4,-0.3 l -0.9,-0.4 c -0.5,-0.2 -0.8,-0.5 -1,-0.8 -0.2,-0.3 -0.3,-0.6 -0.3,-1 0,-0.5 0.2,-0.9 0.5,-1.2 0.3,-0.3 0.8,-0.5 1.4,-0.5 0.3,0 0.5,0 0.8,0.1 0.3,0.1 0.5,0.1 0.5,0.1 0.1,0 0.2,0 0.2,-0.1 0,0 0.1,-0.1 0.1,-0.2 h 0.3 v 1.8 h -0.3 c -0.1,-0.4 -0.3,-0.7 -0.6,-1 -0.3,-0.3 -0.6,-0.4 -0.9,-0.4 -0.3,0 -0.5,0.1 -0.6,0.2 -0.1,0.2 -0.2,0.3 -0.2,0.5 0,0.1 0.1,0.3 0.2,0.4 0.1,0.1 0.3,0.3 0.7,0.5 l 0.7,0.3 c 0.4,0.2 0.7,0.4 0.9,0.6 0.3,0.3 0.5,0.7 0.5,1.2 0,0.5 -0.2,0.9 -0.5,1.3 -0.3,0.4 -0.8,0.6 -1.5,0.6 -0.2,0 -0.3,0 -0.5,-0.1 -0.2,0 -0.4,-0.1 -0.6,-0.2 l -0.2,-0.1 c -0.1,0 -0.1,0 -0.1,0 0,0 0,0 -0.1,0 -0.1,0 -0.1,0 -0.2,0.1 -0.1,0.1 -0.1,0.1 -0.2,0.3 h -0.3 v -1.9 z"
   id="path174"
   inkscape:connector-curvature="0"
   style="fill:#00539f" />
						</g>
						<g
   id="g180">
							<path
   class="st5"
   d="m 91.8,123.3 h 7.4 v 2.5 h -0.4 c -0.1,-0.9 -0.4,-1.5 -1,-1.8 -0.3,-0.2 -0.8,-0.3 -1.4,-0.3 v 6.5 c 0,0.5 0.1,0.8 0.2,0.9 0.2,0.1 0.5,0.2 1,0.2 v 0.3 h -4.4 v -0.3 c 0.5,0 0.8,-0.1 1,-0.2 0.2,-0.2 0.2,-0.5 0.2,-0.9 v -6.5 c -0.6,0 -1.1,0.1 -1.4,0.3 -0.6,0.3 -0.9,0.9 -1,1.8 h -0.4 z"
   id="path178"
   inkscape:connector-curvature="0"
   style="fill:#00539f" />
						</g>
						<g
   id="g184">
							<path
   class="st5"
   d="m 99,131.3 c 0.2,0 0.4,-0.1 0.5,-0.2 0.1,-0.1 0.1,-0.2 0.1,-0.5 v -0.4 -3.4 c 0,-0.3 0,-0.4 -0.1,-0.5 -0.1,-0.1 -0.3,-0.2 -0.5,-0.2 v -0.3 h 2.3 v 1 c 0.3,-0.3 0.5,-0.6 0.8,-0.8 0.3,-0.2 0.6,-0.3 0.9,-0.3 0.3,0 0.5,0.1 0.7,0.2 0.2,0.2 0.3,0.4 0.3,0.7 0,0.2 -0.1,0.4 -0.2,0.6 -0.1,0.2 -0.3,0.2 -0.6,0.2 -0.3,0 -0.5,-0.1 -0.7,-0.4 -0.2,-0.2 -0.3,-0.4 -0.4,-0.4 -0.2,0 -0.3,0.1 -0.5,0.3 -0.2,0.2 -0.2,0.5 -0.2,0.9 v 2.3 c 0,0.4 0.1,0.7 0.2,0.8 0.1,0.1 0.4,0.2 0.7,0.2 v 0.3 H 99 Z"
   id="path182"
   inkscape:connector-curvature="0"
   style="fill:#00539f" />
						</g>
						<g
   id="g188">
							<path
   class="st5"
   d="m 105.4,129.1 c 0.5,-0.3 1.4,-0.7 2.5,-1 v -0.9 c 0,-0.4 -0.1,-0.6 -0.2,-0.8 -0.2,-0.2 -0.4,-0.3 -0.8,-0.3 -0.2,0 -0.4,0 -0.5,0.1 -0.1,0.1 -0.2,0.2 -0.2,0.3 0,0 0,0.1 0,0.1 0,0 0,0.1 0.1,0.1 l 0.1,0.1 c 0.1,0.1 0.1,0.1 0.1,0.2 0,0.1 0.1,0.2 0.1,0.3 0,0.2 -0.1,0.4 -0.2,0.5 -0.2,0.1 -0.3,0.2 -0.5,0.2 -0.2,0 -0.4,-0.1 -0.6,-0.2 -0.2,-0.1 -0.2,-0.3 -0.2,-0.6 0,-0.5 0.2,-0.8 0.7,-1.1 0.4,-0.3 1,-0.4 1.6,-0.4 0.7,0 1.3,0.1 1.8,0.4 0.5,0.3 0.7,0.8 0.7,1.5 v 3 c 0,0.1 0,0.2 0.1,0.2 0,0.1 0.1,0.1 0.2,0.1 0,0 0.1,0 0.1,0 0,0 0.1,-0.1 0.2,-0.1 l 0.2,0.3 c -0.2,0.3 -0.5,0.5 -0.8,0.6 -0.2,0.1 -0.4,0.1 -0.6,0.1 -0.4,0 -0.6,-0.1 -0.8,-0.3 -0.1,-0.1 -0.2,-0.3 -0.2,-0.5 -0.3,0.3 -0.7,0.6 -1.2,0.7 -0.3,0.1 -0.5,0.1 -0.8,0.1 -0.3,0 -0.6,-0.1 -0.9,-0.3 -0.3,-0.2 -0.4,-0.6 -0.4,-1 -0.4,-0.6 -0.2,-1.1 0.4,-1.4 m 2.1,1.6 c 0.1,-0.1 0.2,-0.2 0.3,-0.3 v -1.8 c -0.3,0.1 -0.6,0.2 -0.9,0.4 -0.4,0.3 -0.6,0.7 -0.6,1.1 0,0.3 0.1,0.5 0.2,0.6 0.1,0.1 0.3,0.2 0.4,0.2 0.3,0 0.4,-0.1 0.6,-0.2"
   id="path186"
   inkscape:connector-curvature="0"
   style="fill:#00539f" />
						</g>
						<g
   id="g192">
							<path
   class="st5"
   d="m 111.4,126.6 c 0.5,-0.6 1,-0.8 1.7,-0.8 0.3,0 0.6,0.1 0.9,0.2 0.2,0.1 0.4,0.3 0.6,0.5 v -2.3 c 0,-0.3 -0.1,-0.5 -0.2,-0.6 -0.1,-0.1 -0.4,-0.1 -0.7,-0.1 v -0.3 h 2.7 v 7.1 c 0,0.3 0,0.4 0.1,0.5 0.1,0.1 0.3,0.2 0.6,0.2 v 0.3 c -0.7,0.1 -1.1,0.1 -1.3,0.2 -0.2,0 -0.6,0.1 -1.1,0.3 V 131 c -0.2,0.2 -0.4,0.4 -0.6,0.5 -0.3,0.2 -0.6,0.3 -1,0.3 -0.6,0 -1.1,-0.3 -1.6,-0.8 -0.4,-0.5 -0.7,-1.2 -0.7,-2.1 -0.1,-1 0.1,-1.7 0.6,-2.3 m 2.8,4.1 c 0.2,-0.2 0.3,-0.4 0.3,-0.5 v -3 c 0,-0.1 -0.1,-0.2 -0.3,-0.4 -0.2,-0.2 -0.4,-0.3 -0.7,-0.3 -0.4,0 -0.7,0.3 -0.9,0.9 -0.1,0.3 -0.1,0.8 -0.1,1.4 0,0.6 0,1.1 0.1,1.4 0.1,0.6 0.4,0.9 0.9,0.9 0.3,0 0.5,-0.1 0.7,-0.4"
   id="path190"
   inkscape:connector-curvature="0"
   style="fill:#00539f" />
						</g>
						<g
   id="g196">
							<path
   class="st5"
   d="m 118.3,126.6 c 0.5,-0.5 1.1,-0.8 1.8,-0.8 0.4,0 0.8,0.1 1.1,0.3 0.4,0.2 0.6,0.5 0.8,0.9 0.1,0.3 0.2,0.7 0.3,1.1 0,0.2 0,0.4 0,0.5 h -3.1 c 0,0.5 0.1,0.9 0.2,1.3 0.2,0.7 0.7,1 1.3,1 0.3,0 0.6,-0.1 0.8,-0.3 0.2,-0.1 0.4,-0.3 0.6,-0.5 l 0.3,0.2 c -0.4,0.6 -0.8,1.1 -1.3,1.3 -0.3,0.2 -0.7,0.2 -1.1,0.2 -0.6,0 -1.2,-0.2 -1.7,-0.7 -0.5,-0.5 -0.8,-1.2 -0.8,-2.3 0,-1 0.3,-1.7 0.8,-2.2 m 2.6,1.5 c 0,-0.7 -0.1,-1.2 -0.2,-1.5 -0.1,-0.3 -0.3,-0.4 -0.6,-0.4 -0.3,0 -0.5,0.2 -0.7,0.5 -0.1,0.3 -0.2,0.8 -0.2,1.5 h 1.7 z"
   id="path194"
   inkscape:connector-curvature="0"
   style="fill:#00539f" />
						</g>
						<g
   id="g200">
							<path
   class="st5"
   d="m 125.3,131.3 c 0.3,0 0.5,-0.2 0.7,-0.4 0.1,-0.2 0.3,-0.5 0.5,-1 l 2.7,-6.7 h 0.4 l 2.7,6.5 c 0.3,0.7 0.5,1.2 0.7,1.4 0.2,0.2 0.4,0.3 0.6,0.3 v 0.3 h -4 v -0.3 c 0.4,0 0.7,0 0.8,-0.1 0.1,-0.1 0.2,-0.2 0.2,-0.4 0,-0.1 0,-0.2 -0.1,-0.4 0,-0.1 -0.1,-0.3 -0.2,-0.4 l -0.3,-0.7 h -2.7 c -0.2,0.5 -0.3,0.8 -0.4,1 -0.1,0.3 -0.2,0.6 -0.2,0.7 0,0.2 0.1,0.3 0.4,0.4 0.1,0 0.4,0.1 0.6,0.1 v 0.3 h -2.5 v -0.6 z m 4.6,-2.6 -1.2,-2.8 h -0.1 l -1.1,2.8 z"
   id="path198"
   inkscape:connector-curvature="0"
   style="fill:#00539f" />
						</g>
						<g
   id="g204">
							<path
   class="st5"
   d="m 134.3,129.7 h 0.3 c 0.1,0.6 0.3,1 0.7,1.2 0.3,0.2 0.7,0.4 1,0.4 0.3,0 0.5,-0.1 0.7,-0.2 0.1,-0.1 0.2,-0.3 0.2,-0.6 0,-0.2 -0.1,-0.4 -0.2,-0.6 -0.1,-0.1 -0.2,-0.2 -0.4,-0.3 l -0.9,-0.4 c -0.5,-0.2 -0.8,-0.5 -1,-0.8 -0.2,-0.3 -0.3,-0.6 -0.3,-1 0,-0.5 0.2,-0.9 0.5,-1.2 0.3,-0.3 0.8,-0.5 1.4,-0.5 0.3,0 0.5,0 0.8,0.1 0.3,0.1 0.5,0.1 0.5,0.1 0.1,0 0.2,0 0.2,-0.1 0,0 0.1,-0.1 0.1,-0.2 h 0.3 v 1.8 h -0.3 c -0.1,-0.4 -0.3,-0.7 -0.6,-1 -0.3,-0.3 -0.6,-0.4 -0.9,-0.4 -0.3,0 -0.5,0.1 -0.6,0.2 -0.1,0.2 -0.2,0.3 -0.2,0.5 0,0.1 0.1,0.3 0.2,0.4 0.1,0.1 0.3,0.3 0.7,0.5 l 0.7,0.3 c 0.4,0.2 0.7,0.4 0.9,0.6 0.3,0.3 0.5,0.7 0.5,1.2 0,0.5 -0.2,0.9 -0.5,1.3 -0.3,0.4 -0.8,0.6 -1.5,0.6 -0.2,0 -0.3,0 -0.5,-0.1 -0.2,0 -0.4,-0.1 -0.6,-0.2 l -0.2,-0.1 c -0.1,0 -0.1,0 -0.1,0 0,0 0,0 -0.1,0 -0.1,0 -0.1,0 -0.2,0.1 -0.1,0.1 -0.1,0.1 -0.2,0.3 h -0.3 v -1.9 z"
   id="path202"
   inkscape:connector-curvature="0"
   style="fill:#00539f" />
						</g>
						<g
   id="g208">
							<path
   class="st5"
   d="m 139.1,129.7 h 0.3 c 0.1,0.6 0.3,1 0.7,1.2 0.3,0.2 0.7,0.4 1,0.4 0.3,0 0.5,-0.1 0.7,-0.2 0.1,-0.1 0.2,-0.3 0.2,-0.6 0,-0.2 -0.1,-0.4 -0.2,-0.6 -0.1,-0.1 -0.2,-0.2 -0.4,-0.3 l -0.9,-0.4 c -0.5,-0.2 -0.8,-0.5 -1,-0.8 -0.2,-0.3 -0.3,-0.6 -0.3,-1 0,-0.5 0.2,-0.9 0.5,-1.2 0.3,-0.3 0.8,-0.5 1.4,-0.5 0.3,0 0.5,0 0.8,0.1 0.3,0.1 0.5,0.1 0.6,0.1 0.1,0 0.2,0 0.2,-0.1 0,0 0.1,-0.1 0.1,-0.2 h 0.3 v 1.8 h -0.3 c -0.1,-0.4 -0.3,-0.7 -0.6,-1 -0.3,-0.3 -0.6,-0.4 -0.9,-0.4 -0.3,0 -0.5,0.1 -0.6,0.2 -0.1,0.2 -0.2,0.3 -0.2,0.5 0,0.1 0.1,0.3 0.2,0.4 0.1,0.1 0.3,0.3 0.7,0.5 l 0.7,0.3 c 0.4,0.2 0.7,0.4 0.9,0.6 0.3,0.3 0.5,0.7 0.5,1.2 0,0.5 -0.2,0.9 -0.5,1.3 -0.3,0.4 -0.8,0.6 -1.5,0.6 -0.2,0 -0.3,0 -0.5,-0.1 -0.2,0 -0.4,-0.1 -0.6,-0.2 l -0.2,-0.1 c -0.1,0 -0.1,0 -0.1,0 0,0 0,0 -0.1,0 -0.1,0 -0.1,0 -0.2,0.1 -0.1,0.1 -0.1,0.1 -0.2,0.3 h -0.3 v -1.9 z"
   id="path206"
   inkscape:connector-curvature="0"
   style="fill:#00539f" />
						</g>
						<g
   id="g212">
							<path
   class="st5"
   d="m 144.6,126.6 c 0.5,-0.6 1.2,-0.9 2,-0.9 0.8,0 1.5,0.3 2,0.9 0.5,0.6 0.8,1.3 0.8,2.1 0,0.8 -0.3,1.5 -0.8,2.1 -0.5,0.6 -1.2,0.9 -2,0.9 -0.8,0 -1.5,-0.3 -2,-0.9 -0.5,-0.6 -0.8,-1.3 -0.8,-2.1 0,-0.8 0.3,-1.5 0.8,-2.1 m 1.2,4 c 0.1,0.5 0.4,0.8 0.8,0.8 0.4,0 0.7,-0.2 0.8,-0.6 0.1,-0.4 0.2,-1.1 0.2,-2 0,-0.9 -0.1,-1.6 -0.2,-2 -0.1,-0.4 -0.4,-0.6 -0.8,-0.6 -0.4,0 -0.7,0.3 -0.8,0.8 -0.1,0.4 -0.1,1 -0.1,1.8 0,0.8 0,1.4 0.1,1.8"
   id="path210"
   inkscape:connector-curvature="0"
   style="fill:#00539f" />
						</g>
						<g
   id="g216">
							<path
   class="st5"
   d="m 154.3,126.1 c 0.4,0.3 0.6,0.6 0.6,1 0,0.2 -0.1,0.4 -0.2,0.6 -0.1,0.2 -0.3,0.2 -0.6,0.2 -0.2,0 -0.3,0 -0.4,-0.1 -0.2,-0.1 -0.3,-0.4 -0.3,-0.7 0,0 0,-0.1 0,-0.2 0,-0.1 0,-0.1 0,-0.2 0,-0.2 0,-0.4 -0.1,-0.4 -0.1,-0.1 -0.2,-0.1 -0.4,-0.1 -0.4,0 -0.6,0.2 -0.8,0.6 -0.2,0.4 -0.2,0.9 -0.2,1.4 0,0.8 0.2,1.4 0.5,1.9 0.3,0.5 0.7,0.8 1.2,0.8 0.3,0 0.6,-0.1 0.8,-0.2 0.1,-0.1 0.3,-0.2 0.5,-0.5 l 0.2,0.2 c -0.4,0.6 -0.9,0.9 -1.4,1.1 -0.3,0.1 -0.6,0.2 -0.9,0.2 -0.8,0 -1.4,-0.3 -1.9,-0.8 -0.5,-0.6 -0.7,-1.3 -0.7,-2.1 0,-0.9 0.3,-1.6 0.8,-2.2 0.5,-0.6 1.2,-0.9 2.1,-0.9 0.3,0.1 0.8,0.2 1.2,0.4"
   id="path214"
   inkscape:connector-curvature="0"
   style="fill:#00539f" />
						</g>
						<g
   id="g220">
							<path
   class="st5"
   d="m 155.4,131.3 c 0.2,0 0.4,-0.1 0.4,-0.2 0.1,-0.1 0.2,-0.3 0.2,-0.6 v -3.7 c 0,-0.2 0,-0.4 -0.1,-0.5 -0.1,-0.1 -0.2,-0.2 -0.5,-0.2 v -0.3 h 2.3 v 4.7 c 0,0.3 0,0.4 0.1,0.5 0.1,0.1 0.2,0.1 0.5,0.2 v 0.3 h -2.9 z m 0.8,-7.9 c 0.2,-0.2 0.4,-0.3 0.7,-0.3 0.3,0 0.5,0.1 0.7,0.3 0.2,0.2 0.3,0.4 0.3,0.7 0,0.3 -0.1,0.5 -0.3,0.7 -0.2,0.2 -0.4,0.3 -0.7,0.3 -0.3,0 -0.5,-0.1 -0.7,-0.3 -0.2,-0.2 -0.3,-0.4 -0.3,-0.7 0,-0.3 0.1,-0.5 0.3,-0.7"
   id="path218"
   inkscape:connector-curvature="0"
   style="fill:#00539f" />
						</g>
						<g
   id="g224">
							<path
   class="st5"
   d="m 159.7,129.1 c 0.5,-0.3 1.4,-0.7 2.5,-1 v -0.9 c 0,-0.4 -0.1,-0.6 -0.2,-0.8 -0.2,-0.2 -0.4,-0.3 -0.8,-0.3 -0.2,0 -0.4,0 -0.5,0.1 -0.1,0.1 -0.2,0.2 -0.2,0.3 0,0 0,0.1 0,0.1 0,0 0,0.1 0.1,0.1 l 0.1,0.1 c 0.1,0.1 0.1,0.1 0.1,0.2 0,0.1 0.1,0.2 0.1,0.3 0,0.2 -0.1,0.4 -0.2,0.5 -0.2,0.1 -0.3,0.2 -0.5,0.2 -0.2,0 -0.4,-0.1 -0.6,-0.2 -0.2,-0.1 -0.3,-0.3 -0.3,-0.6 0,-0.5 0.2,-0.8 0.7,-1.1 0.4,-0.3 1,-0.4 1.6,-0.4 0.7,0 1.3,0.1 1.8,0.4 0.5,0.3 0.7,0.8 0.7,1.5 v 3 c 0,0.1 0,0.2 0.1,0.2 0,0.1 0.1,0.1 0.2,0.1 0,0 0.1,0 0.1,0 0,0 0.1,-0.1 0.2,-0.1 l 0.2,0.3 c -0.2,0.3 -0.5,0.5 -0.8,0.6 -0.2,0.1 -0.4,0.1 -0.6,0.1 -0.4,0 -0.6,-0.1 -0.8,-0.3 -0.1,-0.1 -0.2,-0.3 -0.2,-0.5 -0.3,0.3 -0.7,0.6 -1.2,0.7 -0.3,0.1 -0.5,0.1 -0.8,0.1 -0.3,0 -0.7,-0.1 -0.9,-0.3 -0.3,-0.2 -0.4,-0.6 -0.4,-1 -0.3,-0.6 0,-1.1 0.5,-1.4 m 2.2,1.6 c 0.1,-0.1 0.2,-0.2 0.3,-0.3 v -1.8 c -0.3,0.1 -0.6,0.2 -0.9,0.4 -0.4,0.3 -0.6,0.7 -0.6,1.1 0,0.3 0.1,0.5 0.2,0.6 0.1,0.1 0.3,0.2 0.4,0.2 0.2,0 0.4,-0.1 0.6,-0.2"
   id="path222"
   inkscape:connector-curvature="0"
   style="fill:#00539f" />
						</g>
						<g
   id="g228">
							<path
   class="st5"
   d="m 165,126.4 v -0.3 c 0.1,-0.1 0.2,-0.2 0.4,-0.4 0.2,-0.2 0.4,-0.4 0.6,-0.6 0.4,-0.4 0.7,-0.8 1,-1.3 h 0.3 v 2.1 h 1.2 v 0.5 h -1.2 v 3.7 c 0,0.2 0,0.3 0.1,0.4 0.1,0.2 0.2,0.3 0.4,0.3 0.2,0 0.3,-0.1 0.4,-0.2 0.1,-0.1 0.2,-0.3 0.3,-0.5 l 0.3,0.1 c -0.1,0.3 -0.3,0.6 -0.5,0.8 -0.4,0.4 -0.8,0.6 -1.3,0.6 -0.3,0 -0.5,-0.1 -0.8,-0.2 -0.4,-0.2 -0.6,-0.6 -0.6,-1.1 v -4 H 165 Z"
   id="path226"
   inkscape:connector-curvature="0"
   style="fill:#00539f" />
						</g>
						<g
   id="g232">
							<path
   class="st5"
   d="m 169.1,131.3 c 0.2,0 0.4,-0.1 0.4,-0.2 0.1,-0.1 0.2,-0.3 0.2,-0.6 v -3.7 c 0,-0.2 0,-0.4 -0.1,-0.5 -0.1,-0.1 -0.2,-0.2 -0.5,-0.2 v -0.3 h 2.3 v 4.7 c 0,0.3 0,0.4 0.1,0.5 0.1,0.1 0.2,0.1 0.5,0.2 v 0.3 h -2.9 z m 0.8,-7.9 c 0.2,-0.2 0.4,-0.3 0.7,-0.3 0.3,0 0.5,0.1 0.7,0.3 0.2,0.2 0.3,0.4 0.3,0.7 0,0.3 -0.1,0.5 -0.3,0.7 -0.2,0.2 -0.4,0.3 -0.7,0.3 -0.3,0 -0.5,-0.1 -0.7,-0.3 -0.2,-0.2 -0.3,-0.4 -0.3,-0.7 0,-0.3 0.1,-0.5 0.3,-0.7"
   id="path230"
   inkscape:connector-curvature="0"
   style="fill:#00539f" />
						</g>
						<g
   id="g236">
							<path
   class="st5"
   d="m 173.3,126.6 c 0.5,-0.6 1.2,-0.9 2,-0.9 0.8,0 1.5,0.3 2,0.9 0.5,0.6 0.8,1.3 0.8,2.1 0,0.8 -0.3,1.5 -0.8,2.1 -0.5,0.6 -1.2,0.9 -2,0.9 -0.8,0 -1.5,-0.3 -2,-0.9 -0.5,-0.6 -0.8,-1.3 -0.8,-2.1 0.1,-0.8 0.3,-1.5 0.8,-2.1 m 1.2,4 c 0.1,0.5 0.4,0.8 0.8,0.8 0.4,0 0.7,-0.2 0.8,-0.6 0.1,-0.4 0.2,-1.1 0.2,-2 0,-0.9 -0.1,-1.6 -0.2,-2 -0.1,-0.4 -0.4,-0.6 -0.8,-0.6 -0.4,0 -0.7,0.3 -0.8,0.8 -0.1,0.4 -0.1,1 -0.1,1.8 0,0.8 0,1.4 0.1,1.8"
   id="path234"
   inkscape:connector-curvature="0"
   style="fill:#00539f" />
						</g>
						<g
   id="g240">
							<path
   class="st5"
   d="m 178.6,131.3 c 0.2,0 0.4,-0.1 0.5,-0.2 0.1,-0.1 0.2,-0.3 0.2,-0.6 v -3.7 c 0,-0.2 0,-0.4 -0.1,-0.5 -0.1,-0.1 -0.3,-0.2 -0.5,-0.2 v -0.3 h 2.3 v 0.9 c 0.2,-0.3 0.4,-0.5 0.7,-0.7 0.3,-0.2 0.6,-0.3 1,-0.3 0.5,0 0.9,0.1 1.2,0.4 0.3,0.3 0.4,0.8 0.4,1.4 v 3 c 0,0.3 0,0.5 0.1,0.5 0.1,0.1 0.2,0.1 0.5,0.2 v 0.3 H 182 v -0.3 c 0.2,0 0.4,-0.1 0.5,-0.2 0.1,-0.1 0.1,-0.3 0.1,-0.5 v -3 c 0,-0.3 0,-0.5 -0.1,-0.6 -0.1,-0.3 -0.3,-0.4 -0.6,-0.4 -0.2,0 -0.4,0.1 -0.6,0.2 -0.2,0.2 -0.3,0.3 -0.4,0.5 v 3.3 c 0,0.3 0,0.4 0.1,0.5 0.1,0.1 0.2,0.1 0.5,0.2 v 0.3 h -3 v -0.2 z"
   id="path238"
   inkscape:connector-curvature="0"
   style="fill:#00539f" />
						</g>
						<g
   id="g244">
							<path
   class="st6"
   d="m 78.4,118 c 0.3,0 0.6,-0.1 0.8,-0.1 0.2,-0.1 0.4,-0.4 0.4,-0.7 v -6 c 0,-0.4 -0.1,-0.6 -0.4,-0.7 -0.1,-0.1 -0.4,-0.1 -0.8,-0.1 V 110 h 4.3 v 0.3 c -0.4,0 -0.6,0.1 -0.8,0.1 -0.2,0.1 -0.4,0.4 -0.4,0.7 v 6 c 0,0.3 0.1,0.6 0.3,0.7 0.2,0.1 0.5,0.2 0.9,0.2 v 0.3 h -4.3 z"
   id="path242"
   inkscape:connector-curvature="0"
   style="fill:#636466" />
						</g>
						<g
   id="g248">
							<path
   class="st6"
   d="m 83.2,118 c 0.2,0 0.4,-0.1 0.5,-0.2 0.1,-0.1 0.2,-0.3 0.2,-0.6 v -3.7 c 0,-0.2 0,-0.4 -0.1,-0.5 -0.1,-0.1 -0.3,-0.2 -0.5,-0.2 v -0.3 h 2.3 v 0.9 c 0.2,-0.3 0.4,-0.5 0.7,-0.7 0.3,-0.2 0.6,-0.3 1,-0.3 0.5,0 0.9,0.1 1.2,0.4 0.3,0.3 0.4,0.8 0.4,1.4 v 3 c 0,0.3 0,0.5 0.1,0.5 0.1,0.1 0.2,0.1 0.5,0.2 v 0.3 H 86.6 V 118 c 0.2,0 0.4,-0.1 0.5,-0.2 0.1,-0.1 0.1,-0.2 0.1,-0.5 v -3 c 0,-0.3 0,-0.5 -0.1,-0.6 -0.1,-0.3 -0.3,-0.4 -0.6,-0.4 -0.2,0 -0.4,0.1 -0.6,0.2 -0.2,0.2 -0.3,0.3 -0.4,0.5 v 3.3 c 0,0.3 0,0.4 0.1,0.5 0.1,0.1 0.2,0.1 0.5,0.2 v 0.3 h -3 V 118 Z"
   id="path246"
   inkscape:connector-curvature="0"
   style="fill:#636466" />
						</g>
						<g
   id="g252">
							<path
   class="st6"
   d="m 90.9,113.4 c 0.5,-0.6 1,-0.8 1.7,-0.8 0.3,0 0.6,0.1 0.9,0.2 0.2,0.1 0.4,0.3 0.6,0.5 V 111 c 0,-0.3 -0.1,-0.5 -0.2,-0.6 -0.1,-0.1 -0.4,-0.1 -0.8,-0.1 V 110 h 2.7 v 7.1 c 0,0.3 0,0.4 0.1,0.5 0.1,0.1 0.3,0.2 0.6,0.2 v 0.3 c -0.7,0.1 -1.1,0.1 -1.3,0.2 -0.2,0 -0.6,0.1 -1.1,0.3 v -0.8 c -0.2,0.2 -0.4,0.4 -0.6,0.5 -0.3,0.2 -0.6,0.3 -1,0.3 -0.6,0 -1.1,-0.3 -1.6,-0.8 -0.4,-0.5 -0.7,-1.2 -0.7,-2.1 0,-1 0.2,-1.8 0.7,-2.3 m 2.8,4.1 c 0.2,-0.2 0.3,-0.4 0.3,-0.5 v -3 c 0,-0.1 -0.1,-0.2 -0.3,-0.4 -0.2,-0.2 -0.4,-0.3 -0.7,-0.3 -0.4,0 -0.7,0.3 -0.9,0.9 -0.1,0.3 -0.1,0.8 -0.1,1.4 0,0.6 0,1.1 0.1,1.4 0.1,0.6 0.4,0.9 0.9,0.9 0.2,-0.1 0.4,-0.2 0.7,-0.4"
   id="path250"
   inkscape:connector-curvature="0"
   style="fill:#636466" />
						</g>
						<g
   id="g256">
							<path
   class="st6"
   d="m 99.2,112.7 v 4.2 c 0,0.2 0,0.4 0.1,0.5 0.1,0.2 0.3,0.3 0.6,0.3 0.2,0 0.4,-0.1 0.6,-0.2 0.1,-0.1 0.2,-0.2 0.4,-0.3 v -3.5 c 0,-0.3 -0.1,-0.4 -0.2,-0.5 -0.1,-0.1 -0.3,-0.2 -0.6,-0.2 v -0.3 h 2.5 v 4.5 c 0,0.2 0,0.4 0.1,0.5 0.1,0.1 0.3,0.2 0.6,0.2 v 0.3 c -0.8,0.1 -1.2,0.1 -1.4,0.2 -0.2,0 -0.5,0.1 -1,0.3 v -0.8 c -0.3,0.3 -0.5,0.4 -0.7,0.5 -0.3,0.2 -0.7,0.3 -1.1,0.3 -0.4,0 -0.8,-0.1 -1.1,-0.4 -0.3,-0.3 -0.5,-0.7 -0.5,-1.4 v -3.1 c 0,-0.3 0,-0.4 -0.1,-0.5 -0.1,-0.1 -0.2,-0.1 -0.5,-0.2 v -0.3 h 2.3 z"
   id="path254"
   inkscape:connector-curvature="0"
   style="fill:#636466" />
						</g>
						<g
   id="g260">
							<path
   class="st6"
   d="m 103.8,116.5 h 0.3 c 0.1,0.6 0.3,1 0.7,1.2 0.3,0.2 0.7,0.4 1,0.4 0.3,0 0.5,-0.1 0.7,-0.2 0.1,-0.1 0.2,-0.3 0.2,-0.6 0,-0.2 -0.1,-0.4 -0.2,-0.6 -0.1,-0.1 -0.2,-0.2 -0.4,-0.3 l -0.9,-0.4 c -0.5,-0.2 -0.8,-0.5 -1,-0.8 -0.2,-0.3 -0.3,-0.6 -0.3,-1 0,-0.5 0.2,-0.9 0.5,-1.2 0.3,-0.3 0.8,-0.5 1.4,-0.5 0.3,0 0.5,0 0.8,0.1 0.3,0.1 0.5,0.1 0.5,0.1 0.1,0 0.2,0 0.2,-0.1 0,0 0.1,-0.1 0.1,-0.2 h 0.3 v 1.8 h -0.3 c -0.1,-0.4 -0.3,-0.7 -0.6,-1 -0.3,-0.3 -0.6,-0.4 -0.9,-0.4 -0.3,0 -0.5,0.1 -0.6,0.2 -0.1,0.2 -0.2,0.3 -0.2,0.5 0,0.1 0.1,0.3 0.2,0.4 0.1,0.1 0.3,0.3 0.7,0.5 l 0.7,0.3 c 0.4,0.2 0.7,0.4 0.9,0.6 0.3,0.3 0.5,0.7 0.5,1.2 0,0.5 -0.2,0.9 -0.5,1.3 -0.3,0.4 -0.8,0.6 -1.5,0.6 -0.2,0 -0.3,0 -0.5,-0.1 -0.2,0 -0.4,-0.1 -0.6,-0.2 l -0.2,-0.1 c -0.1,0 -0.1,0 -0.1,0 0,0 0,0 -0.1,0 -0.1,0 -0.1,0 -0.2,0.1 -0.1,0.1 -0.1,0.1 -0.2,0.3 h -0.3 v -1.9 z"
   id="path258"
   inkscape:connector-curvature="0"
   style="fill:#636466" />
						</g>
						<g
   id="g264">
							<path
   class="st6"
   d="m 108.5,113.2 v -0.3 c 0.1,-0.1 0.2,-0.2 0.4,-0.4 0.2,-0.2 0.4,-0.4 0.6,-0.6 0.4,-0.4 0.7,-0.8 1,-1.3 h 0.3 v 2.1 h 1.2 v 0.5 h -1.2 v 3.7 c 0,0.2 0,0.3 0.1,0.4 0.1,0.2 0.2,0.3 0.4,0.3 0.2,0 0.3,-0.1 0.4,-0.2 0.1,-0.1 0.2,-0.3 0.3,-0.5 l 0.3,0.1 c -0.1,0.3 -0.3,0.6 -0.5,0.8 -0.4,0.4 -0.8,0.6 -1.3,0.6 -0.3,0 -0.5,-0.1 -0.8,-0.2 -0.4,-0.2 -0.6,-0.6 -0.6,-1.1 v -4 h -0.6 z"
   id="path262"
   inkscape:connector-curvature="0"
   style="fill:#636466" />
						</g>
						<g
   id="g268">
							<path
   class="st6"
   d="m 112.6,118 c 0.2,0 0.4,-0.1 0.5,-0.2 0.1,-0.1 0.1,-0.2 0.1,-0.5 v -0.4 -3.4 c 0,-0.3 0,-0.4 -0.1,-0.5 -0.1,-0.1 -0.3,-0.2 -0.5,-0.2 v -0.3 h 2.3 v 1 c 0.3,-0.3 0.5,-0.6 0.8,-0.8 0.3,-0.2 0.6,-0.3 0.9,-0.3 0.3,0 0.5,0.1 0.7,0.2 0.2,0.2 0.3,0.4 0.3,0.7 0,0.2 -0.1,0.4 -0.2,0.6 -0.1,0.2 -0.3,0.2 -0.6,0.2 -0.3,0 -0.5,-0.1 -0.7,-0.4 -0.2,-0.2 -0.3,-0.4 -0.4,-0.4 -0.2,0 -0.3,0.1 -0.5,0.3 -0.2,0.2 -0.2,0.5 -0.2,0.9 v 2.3 c 0,0.4 0.1,0.7 0.2,0.8 0.1,0.1 0.4,0.2 0.7,0.2 v 0.3 h -3.3 z"
   id="path266"
   inkscape:connector-curvature="0"
   style="fill:#636466" />
						</g>
						<g
   id="g272">
							<path
   class="st6"
   d="m 118.1,118 c 0.2,0 0.4,-0.1 0.4,-0.2 0.1,-0.1 0.2,-0.3 0.2,-0.6 v -3.7 c 0,-0.2 0,-0.4 -0.1,-0.5 -0.1,-0.1 -0.2,-0.2 -0.5,-0.2 v -0.3 h 2.3 v 4.7 c 0,0.3 0,0.4 0.1,0.5 0.1,0.1 0.2,0.1 0.5,0.2 v 0.3 h -2.9 z m 0.8,-7.9 c 0.2,-0.2 0.4,-0.3 0.7,-0.3 0.3,0 0.5,0.1 0.7,0.3 0.2,0.2 0.3,0.4 0.3,0.7 0,0.3 -0.1,0.5 -0.3,0.7 -0.2,0.2 -0.4,0.3 -0.7,0.3 -0.3,0 -0.5,-0.1 -0.7,-0.3 -0.2,-0.2 -0.3,-0.4 -0.3,-0.7 0,-0.3 0.1,-0.5 0.3,-0.7"
   id="path270"
   inkscape:connector-curvature="0"
   style="fill:#636466" />
						</g>
						<g
   id="g276">
							<path
   class="st6"
   d="m 122.4,115.9 c 0.5,-0.3 1.4,-0.7 2.5,-1 V 114 c 0,-0.4 -0.1,-0.6 -0.2,-0.8 -0.2,-0.2 -0.4,-0.3 -0.8,-0.3 -0.2,0 -0.4,0 -0.5,0.1 -0.1,0.1 -0.2,0.2 -0.2,0.3 0,0 0,0.1 0,0.1 0,0 0,0.1 0.1,0.1 l 0.1,0.1 c 0.1,0.1 0.1,0.1 0.1,0.2 0,0.1 0.1,0.2 0.1,0.3 0,0.2 -0.1,0.4 -0.2,0.5 -0.2,0.1 -0.3,0.2 -0.5,0.2 -0.2,0 -0.4,-0.1 -0.6,-0.2 -0.2,-0.1 -0.2,-0.3 -0.2,-0.6 0,-0.5 0.2,-0.8 0.7,-1.1 0.4,-0.3 1,-0.4 1.6,-0.4 0.7,0 1.3,0.1 1.8,0.4 0.5,0.3 0.7,0.8 0.7,1.5 v 3 c 0,0.1 0,0.2 0.1,0.2 0,0.1 0.1,0.1 0.2,0.1 0,0 0.1,0 0.1,0 0,0 0.1,-0.1 0.2,-0.1 l 0.2,0.3 c -0.2,0.3 -0.5,0.5 -0.8,0.6 -0.2,0.1 -0.4,0.1 -0.6,0.1 -0.4,0 -0.6,-0.1 -0.8,-0.3 -0.1,-0.1 -0.2,-0.3 -0.2,-0.5 -0.3,0.3 -0.7,0.6 -1.2,0.7 -0.3,0.1 -0.5,0.1 -0.8,0.1 -0.3,0 -0.6,-0.1 -0.9,-0.3 -0.3,-0.2 -0.4,-0.6 -0.4,-1 -0.4,-0.7 -0.1,-1.1 0.4,-1.4 m 2.2,1.6 c 0.1,-0.1 0.2,-0.2 0.3,-0.3 v -1.8 c -0.3,0.1 -0.6,0.2 -0.9,0.4 -0.4,0.3 -0.6,0.7 -0.6,1.1 0,0.3 0.1,0.5 0.2,0.6 0.1,0.1 0.3,0.2 0.4,0.2 0.2,-0.1 0.4,-0.1 0.6,-0.2"
   id="path274"
   inkscape:connector-curvature="0"
   style="fill:#636466" />
						</g>
						<g
   id="g280">
							<path
   class="st6"
   d="m 127.7,118 c 0.2,-0.1 0.4,-0.1 0.5,-0.2 0.1,-0.1 0.1,-0.3 0.1,-0.5 V 111 c 0,-0.3 0,-0.4 -0.1,-0.5 -0.1,-0.1 -0.2,-0.1 -0.5,-0.2 V 110 h 2.3 v 7.3 c 0,0.3 0,0.4 0.1,0.5 0.1,0.1 0.2,0.2 0.5,0.2 v 0.3 h -2.9 z"
   id="path278"
   inkscape:connector-curvature="0"
   style="fill:#636466" />
						</g>
						<g
   id="g284">
							<path
   class="st6"
   d="m 134.1,118 c 0.4,0 0.7,-0.1 0.8,-0.2 0.2,-0.1 0.2,-0.4 0.2,-0.9 v -5.5 c 0,-0.5 -0.1,-0.8 -0.3,-0.9 -0.1,-0.1 -0.4,-0.2 -0.8,-0.2 V 110 h 4 c 0.8,0 1.5,0.1 2,0.3 1,0.3 1.5,1 1.5,1.9 0,0.7 -0.2,1.2 -0.7,1.6 -0.3,0.3 -0.7,0.5 -1.1,0.6 l 2.3,3.5 c 0.1,0.1 0.1,0.2 0.2,0.2 0.1,0 0.2,0 0.3,0.1 v 0.3 H 140 l -2.6,-3.9 h -0.3 v 2.4 c 0,0.4 0.1,0.7 0.2,0.9 0.1,0.1 0.4,0.2 0.9,0.2 v 0.3 h -4.1 z m 4.8,-4.3 c 0.3,-0.2 0.5,-0.7 0.5,-1.5 0,-0.5 -0.1,-0.9 -0.2,-1.1 -0.2,-0.5 -0.6,-0.7 -1.3,-0.7 -0.3,0 -0.5,0 -0.7,0.1 -0.1,0.1 -0.2,0.2 -0.2,0.4 v 3.1 c 1,0.1 1.6,0 1.9,-0.3"
   id="path282"
   inkscape:connector-curvature="0"
   style="fill:#636466" />
						</g>
						<g
   id="g288">
							<path
   class="st6"
   d="m 143.9,113.4 c 0.5,-0.6 1.2,-0.9 2,-0.9 0.8,0 1.5,0.3 2,0.9 0.5,0.6 0.8,1.3 0.8,2.1 0,0.8 -0.3,1.5 -0.8,2.1 -0.5,0.6 -1.2,0.9 -2,0.9 -0.8,0 -1.5,-0.3 -2,-0.9 -0.5,-0.6 -0.8,-1.3 -0.8,-2.1 0,-0.8 0.3,-1.6 0.8,-2.1 m 1.1,3.9 c 0.1,0.5 0.4,0.8 0.8,0.8 0.4,0 0.7,-0.2 0.8,-0.6 0.1,-0.4 0.2,-1.1 0.2,-2 0,-0.9 -0.1,-1.6 -0.2,-2 -0.1,-0.4 -0.4,-0.6 -0.8,-0.6 -0.4,0 -0.7,0.3 -0.8,0.8 -0.1,0.4 -0.1,1 -0.1,1.8 0,0.9 0.1,1.5 0.1,1.8"
   id="path286"
   inkscape:connector-curvature="0"
   style="fill:#636466" />
						</g>
						<g
   id="g292">
							<path
   class="st6"
   d="m 149.2,120.6 c 0.3,0 0.4,-0.1 0.5,-0.2 0.1,-0.1 0.1,-0.3 0.1,-0.5 v -6.2 c 0,-0.3 0,-0.4 -0.1,-0.5 -0.1,-0.1 -0.3,-0.1 -0.5,-0.2 v -0.3 h 2.4 v 0.8 c 0.2,-0.3 0.3,-0.5 0.5,-0.6 0.3,-0.2 0.7,-0.3 1.1,-0.3 0.6,0 1.2,0.2 1.6,0.7 0.4,0.5 0.6,1.2 0.6,2.2 0,0.9 -0.2,1.6 -0.7,2.2 -0.5,0.6 -1,0.9 -1.7,0.9 -0.3,0 -0.7,-0.1 -1,-0.3 -0.2,-0.1 -0.3,-0.2 -0.5,-0.4 v 1 c 0,0.5 0,0.9 0,0.9 0,0.3 0.1,0.5 0.2,0.7 0.1,0.1 0.4,0.2 0.7,0.2 V 121 H 149 v -0.4 z m 4.3,-3.6 c 0.1,-0.3 0.1,-0.8 0.1,-1.4 0,-0.7 -0.1,-1.3 -0.2,-1.7 -0.1,-0.4 -0.4,-0.6 -0.8,-0.6 -0.3,0 -0.5,0.1 -0.7,0.4 -0.2,0.2 -0.3,0.4 -0.3,0.5 v 3 c 0,0.1 0.1,0.3 0.3,0.5 0.2,0.2 0.4,0.3 0.7,0.3 0.5,-0.1 0.8,-0.4 0.9,-1"
   id="path290"
   inkscape:connector-curvature="0"
   style="fill:#636466" />
						</g>
						<g
   id="g296">
							<path
   class="st6"
   d="m 156.9,113.3 c 0.5,-0.5 1.1,-0.8 1.8,-0.8 0.4,0 0.8,0.1 1.1,0.3 0.4,0.2 0.6,0.5 0.8,0.9 0.1,0.3 0.2,0.7 0.3,1.1 0,0.2 0,0.4 0,0.5 h -3.1 c 0,0.5 0.1,0.9 0.2,1.3 0.2,0.7 0.7,1 1.3,1 0.3,0 0.6,-0.1 0.8,-0.3 0.2,-0.1 0.4,-0.3 0.6,-0.5 l 0.3,0.2 c -0.4,0.6 -0.8,1.1 -1.3,1.3 -0.3,0.2 -0.7,0.2 -1.1,0.2 -0.6,0 -1.2,-0.2 -1.7,-0.7 -0.5,-0.5 -0.8,-1.2 -0.8,-2.3 0,-0.9 0.3,-1.7 0.8,-2.2 m 2.6,1.6 c 0,-0.7 -0.1,-1.2 -0.2,-1.5 -0.1,-0.3 -0.3,-0.4 -0.6,-0.4 -0.3,0 -0.5,0.2 -0.7,0.5 -0.1,0.3 -0.2,0.8 -0.2,1.5 h 1.7 z"
   id="path294"
   inkscape:connector-curvature="0"
   style="fill:#636466" />
						</g>
						<g
   id="g300">
							<path
   class="st6"
   d="m 163.9,118 c 0.3,0 0.5,-0.2 0.7,-0.4 0.1,-0.2 0.3,-0.5 0.5,-1 l 2.7,-6.7 h 0.4 l 2.7,6.5 c 0.3,0.7 0.5,1.2 0.7,1.4 0.2,0.2 0.4,0.3 0.6,0.3 v 0.3 h -4 V 118 c 0.4,0 0.7,-0.1 0.8,-0.1 0.1,-0.1 0.2,-0.2 0.2,-0.4 0,-0.1 0,-0.2 -0.1,-0.4 0,-0.1 -0.1,-0.3 -0.2,-0.4 L 168.6,116 H 166 c -0.2,0.5 -0.3,0.8 -0.4,1 -0.1,0.3 -0.2,0.5 -0.2,0.7 0,0.2 0.1,0.3 0.4,0.4 0.1,0 0.4,0.1 0.6,0.1 v 0.3 h -2.5 z m 4.6,-2.6 -1.2,-2.8 h -0.1 l -1.1,2.8 z"
   id="path298"
   inkscape:connector-curvature="0"
   style="fill:#636466" />
						</g>
						<g
   id="g304">
							<path
   class="st6"
   d="m 177.1,112.9 c 0.4,0.3 0.6,0.6 0.6,1 0,0.2 -0.1,0.4 -0.2,0.6 -0.1,0.2 -0.3,0.2 -0.6,0.2 -0.2,0 -0.3,0 -0.4,-0.1 -0.2,-0.1 -0.3,-0.4 -0.3,-0.7 0,0 0,-0.1 0,-0.2 0,-0.1 0,-0.1 0,-0.2 0,-0.2 0,-0.4 -0.1,-0.4 -0.1,-0.1 -0.2,-0.1 -0.4,-0.1 -0.4,0 -0.6,0.2 -0.8,0.6 -0.2,0.4 -0.2,0.9 -0.2,1.4 0,0.8 0.2,1.4 0.5,1.9 0.3,0.5 0.7,0.8 1.2,0.8 0.3,0 0.6,-0.1 0.8,-0.2 0.1,-0.1 0.3,-0.2 0.5,-0.5 l 0.2,0.2 c -0.4,0.6 -0.9,0.9 -1.4,1.1 -0.3,0.1 -0.6,0.2 -0.9,0.2 -0.8,0 -1.4,-0.3 -1.9,-0.8 -0.5,-0.6 -0.7,-1.3 -0.7,-2.1 0,-0.9 0.3,-1.6 0.8,-2.2 0.5,-0.6 1.2,-0.9 2.1,-0.9 0.4,0 0.8,0.1 1.2,0.4"
   id="path302"
   inkscape:connector-curvature="0"
   style="fill:#636466" />
						</g>
						<g
   id="g308">
							<path
   class="st6"
   d="m 182.6,112.9 c 0.4,0.3 0.6,0.6 0.6,1 0,0.2 -0.1,0.4 -0.2,0.6 -0.1,0.2 -0.3,0.2 -0.6,0.2 -0.2,0 -0.3,0 -0.4,-0.1 -0.2,-0.1 -0.3,-0.4 -0.3,-0.7 0,0 0,-0.1 0,-0.2 0,-0.1 0,-0.1 0,-0.2 0,-0.2 -0.1,-0.4 -0.1,-0.4 -0.1,-0.1 -0.2,-0.1 -0.4,-0.1 -0.4,0 -0.6,0.2 -0.8,0.6 -0.2,0.4 -0.2,0.9 -0.2,1.4 0,0.8 0.2,1.4 0.5,1.9 0.3,0.5 0.7,0.8 1.2,0.8 0.3,0 0.6,-0.1 0.8,-0.2 0.1,-0.1 0.3,-0.2 0.5,-0.5 l 0.2,0.2 c -0.4,0.6 -0.9,0.9 -1.4,1.1 -0.3,0.1 -0.6,0.2 -0.9,0.2 -0.8,0 -1.4,-0.3 -1.9,-0.8 -0.5,-0.6 -0.7,-1.3 -0.7,-2.1 0,-0.9 0.3,-1.6 0.8,-2.2 0.5,-0.6 1.2,-0.9 2.1,-0.9 0.4,0 0.8,0.1 1.2,0.4"
   id="path306"
   inkscape:connector-curvature="0"
   style="fill:#636466" />
						</g>
						<g
   id="g312">
							<path
   class="st6"
   d="m 184.5,113.3 c 0.5,-0.5 1.1,-0.8 1.8,-0.8 0.4,0 0.8,0.1 1.1,0.3 0.4,0.2 0.6,0.5 0.8,0.9 0.1,0.3 0.2,0.7 0.3,1.1 0,0.2 0,0.4 0,0.5 h -3.1 c 0,0.5 0.1,0.9 0.2,1.3 0.2,0.7 0.7,1 1.3,1 0.3,0 0.6,-0.1 0.8,-0.3 0.2,-0.1 0.4,-0.3 0.6,-0.5 l 0.3,0.2 c -0.4,0.6 -0.8,1.1 -1.3,1.3 -0.3,0.2 -0.7,0.2 -1.1,0.2 -0.6,0 -1.2,-0.2 -1.7,-0.7 -0.5,-0.5 -0.8,-1.2 -0.8,-2.3 0.1,-0.9 0.3,-1.7 0.8,-2.2 m 2.7,1.6 c 0,-0.7 -0.1,-1.2 -0.2,-1.5 -0.1,-0.3 -0.3,-0.4 -0.6,-0.4 -0.3,0 -0.5,0.2 -0.7,0.5 -0.1,0.3 -0.2,0.8 -0.2,1.5 h 1.7 z"
   id="path310"
   inkscape:connector-curvature="0"
   style="fill:#636466" />
						</g>
						<g
   id="g316">
							<path
   class="st6"
   d="m 189.3,116.5 h 0.3 c 0.1,0.6 0.3,1 0.7,1.2 0.3,0.2 0.7,0.4 1,0.4 0.3,0 0.5,-0.1 0.7,-0.2 0.1,-0.1 0.2,-0.3 0.2,-0.6 0,-0.2 -0.1,-0.4 -0.2,-0.6 -0.1,-0.1 -0.2,-0.2 -0.4,-0.3 l -0.9,-0.4 c -0.5,-0.2 -0.8,-0.5 -1,-0.8 -0.2,-0.3 -0.3,-0.6 -0.3,-1 0,-0.5 0.2,-0.9 0.5,-1.2 0.3,-0.3 0.8,-0.5 1.4,-0.5 0.3,0 0.5,0 0.8,0.1 0.3,0.1 0.5,0.1 0.5,0.1 0.1,0 0.2,0 0.2,-0.1 0,0 0.1,-0.1 0.1,-0.2 h 0.3 v 1.8 h -0.3 c -0.1,-0.4 -0.3,-0.7 -0.6,-1 -0.3,-0.3 -0.6,-0.4 -0.9,-0.4 -0.3,0 -0.5,0.1 -0.6,0.2 -0.1,0.2 -0.2,0.3 -0.2,0.5 0,0.1 0.1,0.3 0.2,0.4 0.1,0.1 0.3,0.3 0.7,0.5 l 0.7,0.3 c 0.4,0.2 0.7,0.4 0.9,0.6 0.3,0.3 0.5,0.7 0.5,1.2 0,0.5 -0.2,0.9 -0.5,1.3 -0.3,0.4 -0.8,0.6 -1.5,0.6 -0.2,0 -0.3,0 -0.5,-0.1 -0.2,0 -0.4,-0.1 -0.6,-0.2 l -0.2,-0.1 c -0.1,0 -0.1,0 -0.1,0 0,0 0,0 -0.1,0 -0.1,0 -0.1,0 -0.2,0.1 -0.1,0.1 -0.1,0.1 -0.2,0.3 h -0.3 v -1.9 z"
   id="path314"
   inkscape:connector-curvature="0"
   style="fill:#636466" />
						</g>
						<g
   id="g320">
							<path
   class="st6"
   d="m 194.1,116.5 h 0.3 c 0.1,0.6 0.3,1 0.7,1.2 0.3,0.2 0.7,0.4 1,0.4 0.3,0 0.5,-0.1 0.7,-0.2 0.1,-0.1 0.2,-0.3 0.2,-0.6 0,-0.2 -0.1,-0.4 -0.2,-0.6 -0.1,-0.1 -0.2,-0.2 -0.4,-0.3 l -0.9,-0.4 c -0.5,-0.2 -0.8,-0.5 -1,-0.8 -0.2,-0.3 -0.3,-0.6 -0.3,-1 0,-0.5 0.2,-0.9 0.5,-1.2 0.3,-0.3 0.8,-0.5 1.4,-0.5 0.3,0 0.5,0 0.8,0.1 0.3,0.1 0.5,0.1 0.5,0.1 0.1,0 0.2,0 0.2,-0.1 0,0 0.1,-0.1 0.1,-0.2 h 0.3 v 1.8 h -0.3 c -0.1,-0.4 -0.3,-0.7 -0.6,-1 -0.3,-0.3 -0.6,-0.4 -0.9,-0.4 -0.3,0 -0.5,0.1 -0.6,0.2 -0.1,0.2 -0.2,0.3 -0.2,0.5 0,0.1 0.1,0.3 0.2,0.4 0.1,0.1 0.3,0.3 0.7,0.5 l 0.7,0.3 c 0.4,0.2 0.7,0.4 0.9,0.6 0.3,0.3 0.5,0.7 0.5,1.2 0,0.5 -0.2,0.9 -0.5,1.3 -0.3,0.4 -0.8,0.6 -1.5,0.6 -0.2,0 -0.3,0 -0.5,-0.1 -0.2,0 -0.4,-0.1 -0.6,-0.2 l -0.2,-0.1 c -0.1,0 -0.1,0 -0.1,0 0,0 0,0 -0.1,0 -0.1,0 -0.1,0 -0.2,0.1 -0.1,0.1 -0.1,0.1 -0.2,0.3 h -0.3 v -1.9 z"
   id="path318"
   inkscape:connector-curvature="0"
   style="fill:#636466" />
						</g>
						<g
   id="g324">
							<path
   class="st6"
   d="m 91.8,123.3 h 7.4 v 2.5 h -0.4 c -0.1,-0.9 -0.4,-1.5 -1,-1.8 -0.3,-0.2 -0.8,-0.3 -1.4,-0.3 v 6.5 c 0,0.5 0.1,0.8 0.2,0.9 0.2,0.1 0.5,0.2 1,0.2 v 0.3 h -4.4 v -0.3 c 0.5,0 0.8,-0.1 1,-0.2 0.2,-0.2 0.2,-0.5 0.2,-0.9 v -6.5 c -0.6,0 -1.1,0.1 -1.4,0.3 -0.6,0.3 -0.9,0.9 -1,1.8 h -0.4 z"
   id="path322"
   inkscape:connector-curvature="0"
   style="fill:#636466" />
						</g>
						<g
   id="g328">
							<path
   class="st6"
   d="m 99,131.3 c 0.2,0 0.4,-0.1 0.5,-0.2 0.1,-0.1 0.1,-0.2 0.1,-0.5 v -0.4 -3.4 c 0,-0.3 0,-0.4 -0.1,-0.5 -0.1,-0.1 -0.3,-0.2 -0.5,-0.2 v -0.3 h 2.3 v 1 c 0.3,-0.3 0.5,-0.6 0.8,-0.8 0.3,-0.2 0.6,-0.3 0.9,-0.3 0.3,0 0.5,0.1 0.7,0.2 0.2,0.2 0.3,0.4 0.3,0.7 0,0.2 -0.1,0.4 -0.2,0.6 -0.1,0.2 -0.3,0.2 -0.6,0.2 -0.3,0 -0.5,-0.1 -0.7,-0.4 -0.2,-0.2 -0.3,-0.4 -0.4,-0.4 -0.2,0 -0.3,0.1 -0.5,0.3 -0.2,0.2 -0.2,0.5 -0.2,0.9 v 2.3 c 0,0.4 0.1,0.7 0.2,0.8 0.1,0.1 0.4,0.2 0.7,0.2 v 0.3 H 99 Z"
   id="path326"
   inkscape:connector-curvature="0"
   style="fill:#636466" />
						</g>
						<g
   id="g332">
							<path
   class="st6"
   d="m 105.4,129.1 c 0.5,-0.3 1.4,-0.7 2.5,-1 v -0.9 c 0,-0.4 -0.1,-0.6 -0.2,-0.8 -0.2,-0.2 -0.4,-0.3 -0.8,-0.3 -0.2,0 -0.4,0 -0.5,0.1 -0.1,0.1 -0.2,0.2 -0.2,0.3 0,0 0,0.1 0,0.1 0,0 0,0.1 0.1,0.1 l 0.1,0.1 c 0.1,0.1 0.1,0.1 0.1,0.2 0,0.1 0.1,0.2 0.1,0.3 0,0.2 -0.1,0.4 -0.2,0.5 -0.2,0.1 -0.3,0.2 -0.5,0.2 -0.2,0 -0.4,-0.1 -0.6,-0.2 -0.2,-0.1 -0.2,-0.3 -0.2,-0.6 0,-0.5 0.2,-0.8 0.7,-1.1 0.4,-0.3 1,-0.4 1.6,-0.4 0.7,0 1.3,0.1 1.8,0.4 0.5,0.3 0.7,0.8 0.7,1.5 v 3 c 0,0.1 0,0.2 0.1,0.2 0,0.1 0.1,0.1 0.2,0.1 0,0 0.1,0 0.1,0 0,0 0.1,-0.1 0.2,-0.1 l 0.2,0.3 c -0.2,0.3 -0.5,0.5 -0.8,0.6 -0.2,0.1 -0.4,0.1 -0.6,0.1 -0.4,0 -0.6,-0.1 -0.8,-0.3 -0.1,-0.1 -0.2,-0.3 -0.2,-0.5 -0.3,0.3 -0.7,0.6 -1.2,0.7 -0.3,0.1 -0.5,0.1 -0.8,0.1 -0.3,0 -0.6,-0.1 -0.9,-0.3 -0.3,-0.2 -0.4,-0.6 -0.4,-1 -0.4,-0.6 -0.2,-1.1 0.4,-1.4 m 2.1,1.6 c 0.1,-0.1 0.2,-0.2 0.3,-0.3 v -1.8 c -0.3,0.1 -0.6,0.2 -0.9,0.4 -0.4,0.3 -0.6,0.7 -0.6,1.1 0,0.3 0.1,0.5 0.2,0.6 0.1,0.1 0.3,0.2 0.4,0.2 0.3,0 0.4,-0.1 0.6,-0.2"
   id="path330"
   inkscape:connector-curvature="0"
   style="fill:#636466" />
						</g>
						<g
   id="g336">
							<path
   class="st6"
   d="m 111.4,126.6 c 0.5,-0.6 1,-0.8 1.7,-0.8 0.3,0 0.6,0.1 0.9,0.2 0.2,0.1 0.4,0.3 0.6,0.5 v -2.3 c 0,-0.3 -0.1,-0.5 -0.2,-0.6 -0.1,-0.1 -0.4,-0.1 -0.7,-0.1 v -0.3 h 2.7 v 7.1 c 0,0.3 0,0.4 0.1,0.5 0.1,0.1 0.3,0.2 0.6,0.2 v 0.3 c -0.7,0.1 -1.1,0.1 -1.3,0.2 -0.2,0 -0.6,0.1 -1.1,0.3 V 131 c -0.2,0.2 -0.4,0.4 -0.6,0.5 -0.3,0.2 -0.6,0.3 -1,0.3 -0.6,0 -1.1,-0.3 -1.6,-0.8 -0.4,-0.5 -0.7,-1.2 -0.7,-2.1 -0.1,-1 0.1,-1.7 0.6,-2.3 m 2.8,4.1 c 0.2,-0.2 0.3,-0.4 0.3,-0.5 v -3 c 0,-0.1 -0.1,-0.2 -0.3,-0.4 -0.2,-0.2 -0.4,-0.3 -0.7,-0.3 -0.4,0 -0.7,0.3 -0.9,0.9 -0.1,0.3 -0.1,0.8 -0.1,1.4 0,0.6 0,1.1 0.1,1.4 0.1,0.6 0.4,0.9 0.9,0.9 0.3,0 0.5,-0.1 0.7,-0.4"
   id="path334"
   inkscape:connector-curvature="0"
   style="fill:#636466" />
						</g>
						<g
   id="g340">
							<path
   class="st6"
   d="m 118.3,126.6 c 0.5,-0.5 1.1,-0.8 1.8,-0.8 0.4,0 0.8,0.1 1.1,0.3 0.4,0.2 0.6,0.5 0.8,0.9 0.1,0.3 0.2,0.7 0.3,1.1 0,0.2 0,0.4 0,0.5 h -3.1 c 0,0.5 0.1,0.9 0.2,1.3 0.2,0.7 0.7,1 1.3,1 0.3,0 0.6,-0.1 0.8,-0.3 0.2,-0.1 0.4,-0.3 0.6,-0.5 l 0.3,0.2 c -0.4,0.6 -0.8,1.1 -1.3,1.3 -0.3,0.2 -0.7,0.2 -1.1,0.2 -0.6,0 -1.2,-0.2 -1.7,-0.7 -0.5,-0.5 -0.8,-1.2 -0.8,-2.3 0,-1 0.3,-1.7 0.8,-2.2 m 2.6,1.5 c 0,-0.7 -0.1,-1.2 -0.2,-1.5 -0.1,-0.3 -0.3,-0.4 -0.6,-0.4 -0.3,0 -0.5,0.2 -0.7,0.5 -0.1,0.3 -0.2,0.8 -0.2,1.5 h 1.7 z"
   id="path338"
   inkscape:connector-curvature="0"
   style="fill:#636466" />
						</g>
						<g
   id="g344">
							<path
   class="st6"
   d="m 125.3,131.3 c 0.3,0 0.5,-0.2 0.7,-0.4 0.1,-0.2 0.3,-0.5 0.5,-1 l 2.7,-6.7 h 0.4 l 2.7,6.5 c 0.3,0.7 0.5,1.2 0.7,1.4 0.2,0.2 0.4,0.3 0.6,0.3 v 0.3 h -4 v -0.3 c 0.4,0 0.7,0 0.8,-0.1 0.1,-0.1 0.2,-0.2 0.2,-0.4 0,-0.1 0,-0.2 -0.1,-0.4 0,-0.1 -0.1,-0.3 -0.2,-0.4 l -0.3,-0.7 h -2.7 c -0.2,0.5 -0.3,0.8 -0.4,1 -0.1,0.3 -0.2,0.6 -0.2,0.7 0,0.2 0.1,0.3 0.4,0.4 0.1,0 0.4,0.1 0.6,0.1 v 0.3 h -2.5 v -0.6 z m 4.6,-2.6 -1.2,-2.8 h -0.1 l -1.1,2.8 z"
   id="path342"
   inkscape:connector-curvature="0"
   style="fill:#636466" />
						</g>
						<g
   id="g348">
							<path
   class="st6"
   d="m 134.3,129.7 h 0.3 c 0.1,0.6 0.3,1 0.7,1.2 0.3,0.2 0.7,0.4 1,0.4 0.3,0 0.5,-0.1 0.7,-0.2 0.1,-0.1 0.2,-0.3 0.2,-0.6 0,-0.2 -0.1,-0.4 -0.2,-0.6 -0.1,-0.1 -0.2,-0.2 -0.4,-0.3 l -0.9,-0.4 c -0.5,-0.2 -0.8,-0.5 -1,-0.8 -0.2,-0.3 -0.3,-0.6 -0.3,-1 0,-0.5 0.2,-0.9 0.5,-1.2 0.3,-0.3 0.8,-0.5 1.4,-0.5 0.3,0 0.5,0 0.8,0.1 0.3,0.1 0.5,0.1 0.5,0.1 0.1,0 0.2,0 0.2,-0.1 0,0 0.1,-0.1 0.1,-0.2 h 0.3 v 1.8 h -0.3 c -0.1,-0.4 -0.3,-0.7 -0.6,-1 -0.3,-0.3 -0.6,-0.4 -0.9,-0.4 -0.3,0 -0.5,0.1 -0.6,0.2 -0.1,0.2 -0.2,0.3 -0.2,0.5 0,0.1 0.1,0.3 0.2,0.4 0.1,0.1 0.3,0.3 0.7,0.5 l 0.7,0.3 c 0.4,0.2 0.7,0.4 0.9,0.6 0.3,0.3 0.5,0.7 0.5,1.2 0,0.5 -0.2,0.9 -0.5,1.3 -0.3,0.4 -0.8,0.6 -1.5,0.6 -0.2,0 -0.3,0 -0.5,-0.1 -0.2,0 -0.4,-0.1 -0.6,-0.2 l -0.2,-0.1 c -0.1,0 -0.1,0 -0.1,0 0,0 0,0 -0.1,0 -0.1,0 -0.1,0 -0.2,0.1 -0.1,0.1 -0.1,0.1 -0.2,0.3 h -0.3 v -1.9 z"
   id="path346"
   inkscape:connector-curvature="0"
   style="fill:#636466" />
						</g>
						<g
   id="g352">
							<path
   class="st6"
   d="m 139.1,129.7 h 0.3 c 0.1,0.6 0.3,1 0.7,1.2 0.3,0.2 0.7,0.4 1,0.4 0.3,0 0.5,-0.1 0.7,-0.2 0.1,-0.1 0.2,-0.3 0.2,-0.6 0,-0.2 -0.1,-0.4 -0.2,-0.6 -0.1,-0.1 -0.2,-0.2 -0.4,-0.3 l -0.9,-0.4 c -0.5,-0.2 -0.8,-0.5 -1,-0.8 -0.2,-0.3 -0.3,-0.6 -0.3,-1 0,-0.5 0.2,-0.9 0.5,-1.2 0.3,-0.3 0.8,-0.5 1.4,-0.5 0.3,0 0.5,0 0.8,0.1 0.3,0.1 0.5,0.1 0.6,0.1 0.1,0 0.2,0 0.2,-0.1 0,0 0.1,-0.1 0.1,-0.2 h 0.3 v 1.8 h -0.3 c -0.1,-0.4 -0.3,-0.7 -0.6,-1 -0.3,-0.3 -0.6,-0.4 -0.9,-0.4 -0.3,0 -0.5,0.1 -0.6,0.2 -0.1,0.2 -0.2,0.3 -0.2,0.5 0,0.1 0.1,0.3 0.2,0.4 0.1,0.1 0.3,0.3 0.7,0.5 l 0.7,0.3 c 0.4,0.2 0.7,0.4 0.9,0.6 0.3,0.3 0.5,0.7 0.5,1.2 0,0.5 -0.2,0.9 -0.5,1.3 -0.3,0.4 -0.8,0.6 -1.5,0.6 -0.2,0 -0.3,0 -0.5,-0.1 -0.2,0 -0.4,-0.1 -0.6,-0.2 l -0.2,-0.1 c -0.1,0 -0.1,0 -0.1,0 0,0 0,0 -0.1,0 -0.1,0 -0.1,0 -0.2,0.1 -0.1,0.1 -0.1,0.1 -0.2,0.3 h -0.3 v -1.9 z"
   id="path350"
   inkscape:connector-curvature="0"
   style="fill:#636466" />
						</g>
						<g
   id="g356">
							<path
   class="st6"
   d="m 144.6,126.6 c 0.5,-0.6 1.2,-0.9 2,-0.9 0.8,0 1.5,0.3 2,0.9 0.5,0.6 0.8,1.3 0.8,2.1 0,0.8 -0.3,1.5 -0.8,2.1 -0.5,0.6 -1.2,0.9 -2,0.9 -0.8,0 -1.5,-0.3 -2,-0.9 -0.5,-0.6 -0.8,-1.3 -0.8,-2.1 0,-0.8 0.3,-1.5 0.8,-2.1 m 1.2,4 c 0.1,0.5 0.4,0.8 0.8,0.8 0.4,0 0.7,-0.2 0.8,-0.6 0.1,-0.4 0.2,-1.1 0.2,-2 0,-0.9 -0.1,-1.6 -0.2,-2 -0.1,-0.4 -0.4,-0.6 -0.8,-0.6 -0.4,0 -0.7,0.3 -0.8,0.8 -0.1,0.4 -0.1,1 -0.1,1.8 0,0.8 0,1.4 0.1,1.8"
   id="path354"
   inkscape:connector-curvature="0"
   style="fill:#636466" />
						</g>
						<g
   id="g360">
							<path
   class="st6"
   d="m 154.3,126.1 c 0.4,0.3 0.6,0.6 0.6,1 0,0.2 -0.1,0.4 -0.2,0.6 -0.1,0.2 -0.3,0.2 -0.6,0.2 -0.2,0 -0.3,0 -0.4,-0.1 -0.2,-0.1 -0.3,-0.4 -0.3,-0.7 0,0 0,-0.1 0,-0.2 0,-0.1 0,-0.1 0,-0.2 0,-0.2 0,-0.4 -0.1,-0.4 -0.1,-0.1 -0.2,-0.1 -0.4,-0.1 -0.4,0 -0.6,0.2 -0.8,0.6 -0.2,0.4 -0.2,0.9 -0.2,1.4 0,0.8 0.2,1.4 0.5,1.9 0.3,0.5 0.7,0.8 1.2,0.8 0.3,0 0.6,-0.1 0.8,-0.2 0.1,-0.1 0.3,-0.2 0.5,-0.5 l 0.2,0.2 c -0.4,0.6 -0.9,0.9 -1.4,1.1 -0.3,0.1 -0.6,0.2 -0.9,0.2 -0.8,0 -1.4,-0.3 -1.9,-0.8 -0.5,-0.6 -0.7,-1.3 -0.7,-2.1 0,-0.9 0.3,-1.6 0.8,-2.2 0.5,-0.6 1.2,-0.9 2.1,-0.9 0.3,0.1 0.8,0.2 1.2,0.4"
   id="path358"
   inkscape:connector-curvature="0"
   style="fill:#636466" />
						</g>
						<g
   id="g364">
							<path
   class="st6"
   d="m 155.4,131.3 c 0.2,0 0.4,-0.1 0.4,-0.2 0.1,-0.1 0.2,-0.3 0.2,-0.6 v -3.7 c 0,-0.2 0,-0.4 -0.1,-0.5 -0.1,-0.1 -0.2,-0.2 -0.5,-0.2 v -0.3 h 2.3 v 4.7 c 0,0.3 0,0.4 0.1,0.5 0.1,0.1 0.2,0.1 0.5,0.2 v 0.3 h -2.9 z m 0.8,-7.9 c 0.2,-0.2 0.4,-0.3 0.7,-0.3 0.3,0 0.5,0.1 0.7,0.3 0.2,0.2 0.3,0.4 0.3,0.7 0,0.3 -0.1,0.5 -0.3,0.7 -0.2,0.2 -0.4,0.3 -0.7,0.3 -0.3,0 -0.5,-0.1 -0.7,-0.3 -0.2,-0.2 -0.3,-0.4 -0.3,-0.7 0,-0.3 0.1,-0.5 0.3,-0.7"
   id="path362"
   inkscape:connector-curvature="0"
   style="fill:#636466" />
						</g>
						<g
   id="g368">
							<path
   class="st6"
   d="m 159.7,129.1 c 0.5,-0.3 1.4,-0.7 2.5,-1 v -0.9 c 0,-0.4 -0.1,-0.6 -0.2,-0.8 -0.2,-0.2 -0.4,-0.3 -0.8,-0.3 -0.2,0 -0.4,0 -0.5,0.1 -0.1,0.1 -0.2,0.2 -0.2,0.3 0,0 0,0.1 0,0.1 0,0 0,0.1 0.1,0.1 l 0.1,0.1 c 0.1,0.1 0.1,0.1 0.1,0.2 0,0.1 0.1,0.2 0.1,0.3 0,0.2 -0.1,0.4 -0.2,0.5 -0.2,0.1 -0.3,0.2 -0.5,0.2 -0.2,0 -0.4,-0.1 -0.6,-0.2 -0.2,-0.1 -0.3,-0.3 -0.3,-0.6 0,-0.5 0.2,-0.8 0.7,-1.1 0.4,-0.3 1,-0.4 1.6,-0.4 0.7,0 1.3,0.1 1.8,0.4 0.5,0.3 0.7,0.8 0.7,1.5 v 3 c 0,0.1 0,0.2 0.1,0.2 0,0.1 0.1,0.1 0.2,0.1 0,0 0.1,0 0.1,0 0,0 0.1,-0.1 0.2,-0.1 l 0.2,0.3 c -0.2,0.3 -0.5,0.5 -0.8,0.6 -0.2,0.1 -0.4,0.1 -0.6,0.1 -0.4,0 -0.6,-0.1 -0.8,-0.3 -0.1,-0.1 -0.2,-0.3 -0.2,-0.5 -0.3,0.3 -0.7,0.6 -1.2,0.7 -0.3,0.1 -0.5,0.1 -0.8,0.1 -0.3,0 -0.7,-0.1 -0.9,-0.3 -0.3,-0.2 -0.4,-0.6 -0.4,-1 -0.3,-0.6 0,-1.1 0.5,-1.4 m 2.2,1.6 c 0.1,-0.1 0.2,-0.2 0.3,-0.3 v -1.8 c -0.3,0.1 -0.6,0.2 -0.9,0.4 -0.4,0.3 -0.6,0.7 -0.6,1.1 0,0.3 0.1,0.5 0.2,0.6 0.1,0.1 0.3,0.2 0.4,0.2 0.2,0 0.4,-0.1 0.6,-0.2"
   id="path366"
   inkscape:connector-curvature="0"
   style="fill:#636466" />
						</g>
						<g
   id="g372">
							<path
   class="st6"
   d="m 165,126.4 v -0.3 c 0.1,-0.1 0.2,-0.2 0.4,-0.4 0.2,-0.2 0.4,-0.4 0.6,-0.6 0.4,-0.4 0.7,-0.8 1,-1.3 h 0.3 v 2.1 h 1.2 v 0.5 h -1.2 v 3.7 c 0,0.2 0,0.3 0.1,0.4 0.1,0.2 0.2,0.3 0.4,0.3 0.2,0 0.3,-0.1 0.4,-0.2 0.1,-0.1 0.2,-0.3 0.3,-0.5 l 0.3,0.1 c -0.1,0.3 -0.3,0.6 -0.5,0.8 -0.4,0.4 -0.8,0.6 -1.3,0.6 -0.3,0 -0.5,-0.1 -0.8,-0.2 -0.4,-0.2 -0.6,-0.6 -0.6,-1.1 v -4 H 165 Z"
   id="path370"
   inkscape:connector-curvature="0"
   style="fill:#636466" />
						</g>
						<g
   id="g376">
							<path
   class="st6"
   d="m 169.1,131.3 c 0.2,0 0.4,-0.1 0.4,-0.2 0.1,-0.1 0.2,-0.3 0.2,-0.6 v -3.7 c 0,-0.2 0,-0.4 -0.1,-0.5 -0.1,-0.1 -0.2,-0.2 -0.5,-0.2 v -0.3 h 2.3 v 4.7 c 0,0.3 0,0.4 0.1,0.5 0.1,0.1 0.2,0.1 0.5,0.2 v 0.3 h -2.9 z m 0.8,-7.9 c 0.2,-0.2 0.4,-0.3 0.7,-0.3 0.3,0 0.5,0.1 0.7,0.3 0.2,0.2 0.3,0.4 0.3,0.7 0,0.3 -0.1,0.5 -0.3,0.7 -0.2,0.2 -0.4,0.3 -0.7,0.3 -0.3,0 -0.5,-0.1 -0.7,-0.3 -0.2,-0.2 -0.3,-0.4 -0.3,-0.7 0,-0.3 0.1,-0.5 0.3,-0.7"
   id="path374"
   inkscape:connector-curvature="0"
   style="fill:#636466" />
						</g>
						<g
   id="g380">
							<path
   class="st6"
   d="m 173.3,126.6 c 0.5,-0.6 1.2,-0.9 2,-0.9 0.8,0 1.5,0.3 2,0.9 0.5,0.6 0.8,1.3 0.8,2.1 0,0.8 -0.3,1.5 -0.8,2.1 -0.5,0.6 -1.2,0.9 -2,0.9 -0.8,0 -1.5,-0.3 -2,-0.9 -0.5,-0.6 -0.8,-1.3 -0.8,-2.1 0.1,-0.8 0.3,-1.5 0.8,-2.1 m 1.2,4 c 0.1,0.5 0.4,0.8 0.8,0.8 0.4,0 0.7,-0.2 0.8,-0.6 0.1,-0.4 0.2,-1.1 0.2,-2 0,-0.9 -0.1,-1.6 -0.2,-2 -0.1,-0.4 -0.4,-0.6 -0.8,-0.6 -0.4,0 -0.7,0.3 -0.8,0.8 -0.1,0.4 -0.1,1 -0.1,1.8 0,0.8 0,1.4 0.1,1.8"
   id="path378"
   inkscape:connector-curvature="0"
   style="fill:#636466" />
						</g>
						<g
   id="g384">
							<path
   class="st6"
   d="m 178.6,131.3 c 0.2,0 0.4,-0.1 0.5,-0.2 0.1,-0.1 0.2,-0.3 0.2,-0.6 v -3.7 c 0,-0.2 0,-0.4 -0.1,-0.5 -0.1,-0.1 -0.3,-0.2 -0.5,-0.2 v -0.3 h 2.3 v 0.9 c 0.2,-0.3 0.4,-0.5 0.7,-0.7 0.3,-0.2 0.6,-0.3 1,-0.3 0.5,0 0.9,0.1 1.2,0.4 0.3,0.3 0.4,0.8 0.4,1.4 v 3 c 0,0.3 0,0.5 0.1,0.5 0.1,0.1 0.2,0.1 0.5,0.2 v 0.3 H 182 v -0.3 c 0.2,0 0.4,-0.1 0.5,-0.2 0.1,-0.1 0.1,-0.3 0.1,-0.5 v -3 c 0,-0.3 0,-0.5 -0.1,-0.6 -0.1,-0.3 -0.3,-0.4 -0.6,-0.4 -0.2,0 -0.4,0.1 -0.6,0.2 -0.2,0.2 -0.3,0.3 -0.4,0.5 v 3.3 c 0,0.3 0,0.4 0.1,0.5 0.1,0.1 0.2,0.1 0.5,0.2 v 0.3 h -3 v -0.2 z"
   id="path382"
   inkscape:connector-curvature="0"
   style="fill:#636466" />
						</g>
					</g>
				</g>

</svg>